<?xml version="1.0" encoding="UTF-8" standalone="no"?>
<!-- Created with Inkscape (http://www.inkscape.org/) -->

<svg
   xmlns:dc="http://purl.org/dc/elements/1.1/"
   xmlns:cc="http://creativecommons.org/ns#"
   xmlns:rdf="http://www.w3.org/1999/02/22-rdf-syntax-ns#"
   xmlns:svg="http://www.w3.org/2000/svg"
   xmlns="http://www.w3.org/2000/svg"
   xmlns:sodipodi="http://sodipodi.sourceforge.net/DTD/sodipodi-0.dtd"
   xmlns:inkscape="http://www.inkscape.org/namespaces/inkscape"
   id="svg3271"
   version="1.1"
   inkscape:version="0.48.4 r9939"
   viewBox="0 0 157.42 103.75"
   xml:space="preserve"
   sodipodi:docname="imagens para exportar.ai"><metadata
     id="metadata3277"><rdf:RDF><cc:Work
         rdf:about=""><dc:format>image/svg+xml</dc:format><dc:type
           rdf:resource="http://purl.org/dc/dcmitype/StillImage" /><dc:title></dc:title></cc:Work></rdf:RDF></metadata><defs
     id="defs3275"><clipPath
       clipPathUnits="userSpaceOnUse"
       id="clipPath3285"><path
         d="m 0,83 125.936,0 0,-83 L 0,0 0,83 z"
         id="path3287" /></clipPath></defs><sodipodi:namedview
     pagecolor="#ffffff"
     bordercolor="#666666"
     borderopacity="1"
     objecttolerance="10"
     gridtolerance="10"
     guidetolerance="10"
     inkscape:pageopacity="0"
     inkscape:pageshadow="2"
     inkscape:window-width="640"
     inkscape:window-height="480"
     id="namedview3273"
     showgrid="false"
     inkscape:zoom="2.2746988"
     inkscape:cx="78.709999"
     inkscape:cy="51.875"
     inkscape:window-x="0"
     inkscape:window-y="0"
     inkscape:window-maximized="0"
     inkscape:current-layer="g3279" /><g
     id="g3279"
     inkscape:groupmode="layer"
     inkscape:label="imagens para exportar"
     transform="matrix(1.25,0,0,-1.25,0,103.75)"><g
       id="g3281"><g
         id="g3283"
         clip-path="url(#clipPath3285)"><g
           id="g3289"
           transform="translate(63.3711,41.3125)"><path
             d="m 0,0 -0.665,2.129 -0.018,0 L -1.37,0 0,0 z m -0.099,3.516 c 0.143,0 0.238,-0.075 0.286,-0.221 L 2.021,-2.004 C 2.048,-2.086 2.044,-2.152 2.009,-2.203 1.973,-2.258 1.917,-2.281 1.839,-2.281 l -0.977,0 c -0.143,0 -0.237,0.072 -0.287,0.22 l -0.304,0.887 -1.905,0 -0.295,-0.887 c -0.05,-0.148 -0.143,-0.22 -0.282,-0.22 l -0.984,0 c -0.076,0 -0.132,0.023 -0.167,0.078 -0.034,0.051 -0.038,0.117 -0.011,0.199 l 1.829,5.299 c 0.05,0.146 0.148,0.221 0.288,0.221 l 1.157,0 z"
             style="fill:#194151;fill-opacity:1;fill-rule:nonzero;stroke:none"
             id="path3291" /></g><g
           id="g3293"
           transform="translate(68.1924,41.8379)"><path
             d="M 0,0 C 0.372,0 0.641,0.068 0.804,0.207 0.97,0.342 1.05,0.576 1.05,0.904 1.05,1.227 0.97,1.457 0.804,1.594 0.641,1.73 0.372,1.801 0,1.801 l -0.723,0 L -0.723,0 0,0 z m -1.881,-2.807 c -0.159,0 -0.237,0.08 -0.237,0.239 l 0,5.32 c 0,0.16 0.078,0.238 0.237,0.238 l 1.897,0 C 0.837,2.99 1.451,2.83 1.854,2.502 2.262,2.176 2.462,1.645 2.462,0.904 2.462,0.166 2.262,-0.369 1.861,-0.693 1.457,-1.02 0.843,-1.182 0.016,-1.182 l -0.739,0 0,-1.386 c 0,-0.159 -0.079,-0.239 -0.238,-0.239 l -0.92,0 z"
             style="fill:#194151;fill-opacity:1;fill-rule:nonzero;stroke:none"
             id="path3295" /></g><g
           id="g3297"
           transform="translate(73.7012,42.0117)"><path
             d="M 0,0 C 0.379,0 0.649,0.062 0.81,0.193 0.973,0.322 1.052,0.527 1.052,0.812 1.052,1.113 0.973,1.324 0.814,1.445 0.655,1.564 0.388,1.627 0.011,1.627 l -0.773,0 L -0.762,0 0,0 z m 0.025,2.816 c 0.816,0 1.426,-0.16 1.833,-0.47 0.405,-0.315 0.606,-0.828 0.606,-1.534 0,-0.908 -0.422,-1.49 -1.272,-1.749 L 2.424,-2.678 C 2.479,-2.748 2.492,-2.816 2.462,-2.885 2.431,-2.949 2.373,-2.98 2.284,-2.98 l -0.951,0 c -0.143,0 -0.256,0.062 -0.337,0.187 l -1.135,1.66 -0.623,0 0,-1.609 c 0,-0.158 -0.079,-0.238 -0.239,-0.238 l -0.919,0 c -0.158,0 -0.238,0.08 -0.238,0.238 l 0,5.32 c 0,0.16 0.08,0.238 0.238,0.238 l 1.945,0 z"
             style="fill:#194151;fill-opacity:1;fill-rule:nonzero;stroke:none"
             id="path3299" /></g><g
           id="g3301"
           transform="translate(80.3428,40.5859)"><path
             d="m 0,0 c 0.195,0.289 0.293,0.734 0.293,1.344 0,1.187 -0.397,1.783 -1.185,1.783 -0.782,0 -1.173,-0.596 -1.173,-1.783 0,-1.182 0.391,-1.774 1.173,-1.774 0.401,0 0.698,0.141 0.892,0.43 M 1.038,3.594 C 1.494,3.098 1.72,2.344 1.72,1.344 c 0,-1.002 -0.226,-1.75 -0.682,-2.246 -0.454,-0.494 -1.099,-0.743 -1.93,-0.743 -0.826,0 -1.467,0.249 -1.921,0.743 -0.455,0.496 -0.682,1.244 -0.682,2.246 0,1 0.227,1.754 0.682,2.25 0.454,0.498 1.095,0.748 1.921,0.748 0.831,0 1.476,-0.25 1.93,-0.748"
             style="fill:#194151;fill-opacity:1;fill-rule:nonzero;stroke:none"
             id="path3303" /></g><g
           id="g3305"
           transform="translate(84.3857,39.0313)"><path
             d="m 0,0 c -0.146,0 -0.244,0.072 -0.294,0.221 l -1.749,5.295 c -0.026,0.086 -0.024,0.152 0.008,0.205 0.033,0.049 0.091,0.076 0.174,0.076 l 0.984,0 c 0.149,0 0.242,-0.074 0.286,-0.221 l 0.831,-2.785 0.318,-1.34 0.028,0 0.328,1.34 0.82,2.785 c 0.038,0.147 0.139,0.221 0.294,0.221 l 0.988,0 C 3.097,5.797 3.155,5.77 3.188,5.721 3.221,5.668 3.225,5.602 3.196,5.516 L 1.447,0.221 C 1.398,0.072 1.3,0 1.151,0 L 0,0 z"
             style="fill:#194151;fill-opacity:1;fill-rule:nonzero;stroke:none"
             id="path3307" /></g><g
           id="g3309"
           transform="translate(90.2109,41.3125)"><path
             d="m 0,0 -0.664,2.129 -0.02,0 L -1.371,0 0,0 z m -0.099,3.516 c 0.14,0 0.237,-0.075 0.286,-0.221 L 2.02,-2.004 C 2.046,-2.086 2.045,-2.152 2.008,-2.203 1.973,-2.258 1.915,-2.281 1.84,-2.281 l -0.978,0 c -0.141,0 -0.239,0.072 -0.29,0.22 l -0.302,0.887 -1.907,0 -0.294,-0.887 c -0.049,-0.148 -0.142,-0.22 -0.279,-0.22 l -0.984,0 c -0.078,0 -0.134,0.023 -0.169,0.078 -0.035,0.051 -0.04,0.117 -0.011,0.199 l 1.83,5.299 c 0.05,0.146 0.144,0.221 0.288,0.221 l 1.157,0 z"
             style="fill:#194151;fill-opacity:1;fill-rule:nonzero;stroke:none"
             id="path3311" /></g><g
           id="g3313"
           transform="translate(63.377,32.2832)"><path
             d="M 0,0 C 0.589,0 1.014,0.102 1.263,0.303 1.516,0.504 1.643,0.826 1.643,1.271 1.643,1.744 1.52,2.072 1.271,2.26 1.023,2.447 0.604,2.543 0.013,2.543 l -1.208,0 L -1.195,0 0,0 z M 0.038,4.404 C 1.313,4.404 2.269,4.16 2.9,3.666 3.533,3.176 3.852,2.375 3.852,1.271 3.852,-0.148 3.188,-1.062 1.861,-1.463 L 3.787,-4.186 C 3.872,-4.297 3.894,-4.402 3.845,-4.506 3.798,-4.609 3.706,-4.662 3.567,-4.662 l -1.486,0 c -0.226,0 -0.4,0.1 -0.528,0.297 l -1.772,2.595 -0.976,0 0,-2.519 c 0,-0.246 -0.121,-0.373 -0.371,-0.373 l -1.437,0 c -0.249,0 -0.374,0.127 -0.374,0.373 l 0,8.32 c 0,0.248 0.125,0.373 0.374,0.373 l 3.041,0 z"
             style="fill:#194151;fill-opacity:1;fill-rule:nonzero;stroke:none"
             id="path3315" /></g><g
           id="g3317"
           transform="translate(73.3262,31.1895)"><path
             d="m 0,0 -1.039,3.328 -0.024,0 L -2.144,0 0,0 z m -0.154,5.498 c 0.223,0 0.373,-0.115 0.449,-0.348 L 3.159,-3.129 C 3.201,-3.258 3.195,-3.361 3.141,-3.445 3.085,-3.525 2.998,-3.568 2.877,-3.568 l -1.529,0 c -0.221,0 -0.37,0.119 -0.448,0.349 l -0.474,1.387 -2.981,0 -0.463,-1.387 c -0.074,-0.23 -0.22,-0.349 -0.435,-0.349 l -1.541,0 c -0.119,0 -0.207,0.043 -0.264,0.123 -0.054,0.084 -0.06,0.187 -0.018,0.316 l 2.862,8.279 c 0.078,0.233 0.226,0.348 0.448,0.348 l 1.812,0 z"
             style="fill:#194151;fill-opacity:1;fill-rule:nonzero;stroke:none"
             id="path3319" /></g><g
           id="g3321"
           transform="translate(80.8633,32.0137)"><path
             d="M 0,0 C 0.582,0 1.002,0.107 1.258,0.322 1.516,0.535 1.643,0.898 1.643,1.412 1.643,1.92 1.516,2.277 1.258,2.49 1.002,2.705 0.582,2.813 0,2.813 l -1.131,0 L -1.131,0 0,0 z m -2.939,-4.393 c -0.248,0 -0.373,0.127 -0.373,0.373 l 0,8.321 c 0,0.248 0.125,0.373 0.373,0.373 l 2.965,0 C 1.311,4.674 2.268,4.418 2.901,3.908 3.537,3.4 3.853,2.568 3.853,1.412 3.853,0.258 3.537,-0.574 2.908,-1.084 2.279,-1.594 1.319,-1.848 0.026,-1.848 l -1.157,0 0,-2.172 c 0,-0.246 -0.122,-0.373 -0.372,-0.373 l -1.436,0 z"
             style="fill:#194151;fill-opacity:1;fill-rule:nonzero;stroke:none"
             id="path3323" /></g><g
           id="g3325"
           transform="translate(86.166,36.3145)"><path
             d="m 0,0 c 0,0.248 0.126,0.373 0.371,0.373 l 1.452,0 C 2.08,0.373 2.207,0.248 2.207,0 l 0,-8.32 c 0,-0.246 -0.127,-0.373 -0.384,-0.373 l -1.452,0 C 0.126,-8.693 0,-8.566 0,-8.32 L 0,0 z"
             style="fill:#194151;fill-opacity:1;fill-rule:nonzero;stroke:none"
             id="path3327" /></g><g
           id="g3329"
           transform="translate(92.3154,34.7617)"><path
             d="m 0,0 0,-5.215 0.72,0 c 0.813,0 1.404,0.192 1.772,0.574 0.368,0.379 0.552,1.075 0.552,2.086 0,0.965 -0.186,1.637 -0.558,2.004 C 2.113,-0.184 1.521,0 0.708,0 L 0,0 z m -1.835,-7.141 c -0.247,0 -0.372,0.127 -0.372,0.373 l 0,8.321 c 0,0.248 0.125,0.373 0.372,0.373 l 2.63,0 c 1.501,0 2.619,-0.354 3.359,-1.061 0.741,-0.707 1.11,-1.845 1.11,-3.42 0,-1.627 -0.369,-2.797 -1.105,-3.511 -0.734,-0.715 -1.85,-1.075 -3.35,-1.075 l -2.644,0 z"
             style="fill:#194151;fill-opacity:1;fill-rule:nonzero;stroke:none"
             id="path3331" /></g><g
           id="g3333"
           transform="translate(104.1211,30.0566)"><path
             d="m 0,0 c 0.306,0.449 0.455,1.148 0.455,2.1 0,1.855 -0.616,2.783 -1.849,2.783 -1.221,0 -1.835,-0.928 -1.835,-2.783 0,-1.85 0.614,-2.774 1.835,-2.774 0.626,0 1.091,0.225 1.394,0.674 M 1.625,5.617 C 2.334,4.836 2.691,3.664 2.691,2.1 c 0,-1.567 -0.357,-2.739 -1.066,-3.514 -0.711,-0.772 -1.717,-1.16 -3.019,-1.16 -1.289,0 -2.292,0.388 -3.002,1.16 -0.708,0.775 -1.066,1.947 -1.066,3.514 0,1.564 0.358,2.736 1.066,3.517 0.71,0.779 1.713,1.168 3.002,1.168 1.302,0 2.308,-0.389 3.019,-1.168"
             style="fill:#194151;fill-opacity:1;fill-rule:nonzero;stroke:none"
             id="path3335" /></g><g
           id="g3337"
           transform="translate(72.3408,38.1406)"><path
             d="m 0,0 c 0.054,0.125 0.151,0.186 0.295,0.186 l 1.166,0 C 1.548,0.186 1.598,0.152 1.614,0.082 1.631,0.014 1.608,-0.047 1.551,-0.1 L 0.709,-0.939 C 0.62,-1.031 0.503,-1.076 0.366,-1.076 l -0.602,0 c -0.073,0 -0.124,0.017 -0.154,0.062 -0.029,0.043 -0.03,0.094 -0.006,0.155 L 0,0 z"
             style="fill:#194151;fill-opacity:1;fill-rule:nonzero;stroke:none"
             id="path3339" /></g><g
           id="g3341"
           transform="translate(52.5557,41.625)"><path
             d="m 0,0 c 0,-7.549 -6.141,-13.688 -13.69,-13.688 -7.547,0 -13.689,6.139 -13.689,13.688 0,7.551 6.142,13.689 13.689,13.689 2.169,0 4.216,-0.505 6.041,-1.404 0.765,0.965 1.546,1.846 2.336,2.651 -2.478,1.394 -5.334,2.193 -8.377,2.193 -9.443,0 -17.127,-7.684 -17.127,-17.129 0,-9.443 7.684,-17.127 17.127,-17.127 9.446,0 17.129,7.684 17.129,17.127 0,2.703 -0.631,5.262 -1.75,7.537 C 0.685,7.033 -0.296,6.426 -1.247,5.711 -0.447,3.971 0,2.037 0,0"
             style="fill:#194151;fill-opacity:1;fill-rule:nonzero;stroke:none"
             id="path3343" /></g><g
           id="g3345"
           transform="translate(38.752,38.5195)"><path
             d="M 0,0 C 5.741,21.82 21.976,24.865 22.832,25.025 L 19.353,13.189 C 6.997,10.646 1.343,-4.783 1.045,-5.596 0.937,-5.631 0.917,-5.672 0.917,-5.672 0.902,-5.613 0.887,-5.557 0.873,-5.498 L -9.707,0.48 -8.367,9.77 0,0 z"
             style="fill:#194151;fill-opacity:1;fill-rule:nonzero;stroke:none"
             id="path3347" /></g></g></g></g></svg>