<?xml version="1.0" encoding="UTF-8" standalone="no"?>
<!-- Created with Inkscape (http://www.inkscape.org/) -->

<svg
   xmlns:dc="http://purl.org/dc/elements/1.1/"
   xmlns:cc="http://creativecommons.org/ns#"
   xmlns:rdf="http://www.w3.org/1999/02/22-rdf-syntax-ns#"
   xmlns:svg="http://www.w3.org/2000/svg"
   xmlns="http://www.w3.org/2000/svg"
   xmlns:sodipodi="http://sodipodi.sourceforge.net/DTD/sodipodi-0.dtd"
   xmlns:inkscape="http://www.inkscape.org/namespaces/inkscape"
   id="svg2985"
   version="1.1"
   inkscape:version="0.48.4 r9939"
   viewBox="0 0 157.42 103.75"
   xml:space="preserve"
   sodipodi:docname="imagens para exportar.ai"><metadata
     id="metadata2991"><rdf:RDF><cc:Work
         rdf:about=""><dc:format>image/svg+xml</dc:format><dc:type
           rdf:resource="http://purl.org/dc/dcmitype/StillImage" /><dc:title></dc:title></cc:Work></rdf:RDF></metadata><defs
     id="defs2989"><clipPath
       clipPathUnits="userSpaceOnUse"
       id="clipPath2999"><path
         d="m 0,83 125.936,0 0,-83 L 0,0 0,83 z"
         id="path3001" /></clipPath></defs><sodipodi:namedview
     pagecolor="#ffffff"
     bordercolor="#666666"
     borderopacity="1"
     objecttolerance="10"
     gridtolerance="10"
     guidetolerance="10"
     inkscape:pageopacity="0"
     inkscape:pageshadow="2"
     inkscape:window-width="640"
     inkscape:window-height="480"
     id="namedview2987"
     showgrid="false"
     inkscape:zoom="2.2487613"
     inkscape:cx="78.709999"
     inkscape:cy="51.875"
     inkscape:window-x="0"
     inkscape:window-y="0"
     inkscape:window-maximized="0"
     inkscape:current-layer="g2993" /><g
     id="g2993"
     inkscape:groupmode="layer"
     inkscape:label="imagens para exportar"
     transform="matrix(1.25,0,0,-1.25,0,103.75)"><g
       id="g2995"><g
         id="g2997"
         clip-path="url(#clipPath2999)"><g
           id="g3003"
           transform="translate(58.9922,57.3887)"><path
             d="m 0,0 c 0,1.309 -0.663,2.594 -2.036,2.594 -1.131,0 -2.06,-0.963 -2.06,-2.594 0,-1.594 0.825,-2.607 2.023,-2.607 C -1.006,-2.607 0,-1.838 0,0 m -2.11,3.377 c 1.549,0 2.087,-1.207 2.087,-1.207 L 0,2.17 c 0,0 -0.023,0.217 -0.023,0.488 l 0,2.094 c 0,0.18 -0.104,0.281 -0.284,0.281 l -0.533,0 0,0.762 0.904,0 c 0.547,0 0.773,-0.234 0.773,-0.787 l 0,-7.207 c 0,-0.194 0.103,-0.283 0.282,-0.283 l 0.533,0 0,-0.756 -0.888,0 C 0.229,-3.238 0,-2.996 0,-2.521 c 0,0.246 0.025,0.41 0.025,0.41 l -0.025,0 c 0,0 -0.52,-1.284 -2.2,-1.284 -1.719,0 -2.786,1.387 -2.786,3.395 0,2.041 1.197,3.377 2.876,3.377"
             style="fill:#194151;fill-opacity:1;fill-rule:nonzero;stroke:none"
             id="path3005" /></g><g
           id="g3007"
           transform="translate(66.4082,58.043)"><path
             d="M 0,0 C -0.053,1.334 -0.866,1.994 -1.808,1.994 -2.862,1.994 -3.791,1.297 -4.01,0 L 0,0 z m -1.797,2.723 c 1.773,0 2.687,-1.375 2.687,-2.979 0,-0.154 -0.024,-0.437 -0.024,-0.437 l -4.914,0 c 0.03,-1.633 1.159,-2.569 2.483,-2.569 1.172,0 1.92,0.793 1.92,0.793 l 0.42,-0.654 c 0,0 -0.93,-0.926 -2.379,-0.926 -1.894,0 -3.346,1.387 -3.346,3.381 0,2.119 1.437,3.391 3.153,3.391"
             style="fill:#194151;fill-opacity:1;fill-rule:nonzero;stroke:none"
             id="path3009" /></g><g
           id="g3011"
           transform="translate(58.6777,42.0723)"><path
             d="M 0,0 C 1.036,0 1.926,0.779 1.926,2.061 1.926,3.359 1.036,4.172 0,4.172 -1.039,4.172 -1.928,3.359 -1.928,2.061 -1.928,0.779 -1.039,0 0,0 M -0.017,6.568 C 2.666,6.568 4.79,4.758 4.79,2.061 4.79,-0.617 2.666,-2.4 0,-2.4 c -2.668,0 -4.795,1.783 -4.795,4.461 0,2.697 2.127,4.507 4.778,4.507"
             style="fill:#194151;fill-opacity:1;fill-rule:nonzero;stroke:none"
             id="path3013" /></g><g
           id="g3015"
           transform="translate(65.001,48.9883)"><path
             d="m 0,0 c 0,0.236 -0.133,0.367 -0.361,0.367 l -0.626,0 0,2.412 2.634,0 c 0.841,0 1.201,-0.363 1.201,-1.211 l 0,-7.904 c 0,-0.234 0.134,-0.363 0.366,-0.363 l 0.624,0 0,-2.416 -2.635,0 C 0.36,-9.115 0,-8.75 0,-7.9 L 0,0 z"
             style="fill:#194151;fill-opacity:1;fill-rule:nonzero;stroke:none"
             id="path3017" /></g><g
           id="g3019"
           transform="translate(70.4023,48.9883)"><path
             d="m 0,0 c 0,0.236 -0.133,0.367 -0.362,0.367 l -0.627,0 0,2.412 2.636,0 c 0.841,0 1.203,-0.363 1.203,-1.211 l 0,-2.545 c 0,-0.433 -0.033,-0.734 -0.033,-0.734 l 0.033,0 c 0.479,0.848 1.463,1.363 2.587,1.363 1.712,0 3.046,-0.797 3.046,-3.209 l 0,-2.779 c 0,-0.234 0.131,-0.363 0.361,-0.363 l 0.625,0 0,-2.416 -2.636,0 c -0.838,0 -1.198,0.365 -1.198,1.215 l 0,3.812 c 0,0.795 -0.315,1.129 -0.94,1.129 C 3.822,-2.959 3.244,-3.473 3,-4.223 2.884,-4.557 2.85,-4.922 2.85,-5.322 l 0,-3.793 -2.85,0 L 0,0 z"
             style="fill:#194151;fill-opacity:1;fill-rule:nonzero;stroke:none"
             id="path3021" /></g><g
           id="g3023"
           transform="translate(85.3584,42.0723)"><path
             d="M 0,0 C 1.036,0 1.925,0.779 1.925,2.061 1.925,3.359 1.036,4.172 0,4.172 -1.037,4.172 -1.929,3.359 -1.929,2.061 -1.929,0.779 -1.037,0 0,0 m -0.02,6.568 c 2.689,0 4.814,-1.81 4.814,-4.507 C 4.794,-0.617 2.669,-2.4 0,-2.4 c -2.668,0 -4.793,1.783 -4.793,4.461 0,2.697 2.125,4.507 4.773,4.507"
             style="fill:#194151;fill-opacity:1;fill-rule:nonzero;stroke:none"
             id="path3025" /></g><g
           id="g3027"
           transform="translate(54.5771,31.0195)"><path
             d="m 0,0 c 0,0.18 -0.102,0.283 -0.278,0.283 l -0.534,0 0,0.756 0.89,0 c 0.533,0 0.776,-0.23 0.776,-0.719 l 0,-0.297 c 0,-0.253 -0.027,-0.46 -0.027,-0.46 l 0.027,0 c 0.227,0.591 1.042,1.632 2.542,1.632 1.591,0 2.152,-0.912 2.152,-2.504 l 0,-3.074 c 0,-0.191 0.101,-0.281 0.279,-0.281 l 0.533,0 0,-0.76 -0.902,0 c -0.546,0 -0.776,0.233 -0.776,0.785 l 0,3.094 c 0,1.02 -0.152,1.918 -1.386,1.918 -1.097,0 -2.035,-0.76 -2.328,-1.826 C 0.89,-1.723 0.862,-2.02 0.862,-2.324 l 0,-3.1 L 0,-5.424 0,0 z"
             style="fill:#194151;fill-opacity:1;fill-rule:nonzero;stroke:none"
             id="path3029" /></g><g
           id="g3031"
           transform="translate(64.0264,26.1895)"><path
             d="m 0,0 c 1.222,0 1.961,1.283 1.961,2.402 l 0,0.295 -0.37,0 C 0.585,2.697 -1.421,2.67 -1.421,1.217 -1.421,0.613 -0.952,0 0,0 m 1.603,3.389 0.358,0 0,0.078 c 0,1.349 -0.483,1.824 -1.654,1.824 -0.318,0 -1.249,-0.088 -1.249,-0.564 l 0,-0.413 -0.826,0 0,0.618 c 0,0.9 1.529,1.093 2.087,1.093 2.024,0 2.507,-1.093 2.507,-2.48 l 0,-3.098 c 0,-0.191 0.103,-0.281 0.281,-0.281 l 0.534,0 0,-0.76 -0.877,0 C 2.217,-0.594 2,-0.35 2,0.178 2,0.461 2.009,0.654 2.009,0.654 l -0.02,0 C 2,0.654 1.464,-0.75 -0.139,-0.75 c -1.067,0 -2.174,0.633 -2.174,1.918 0,2.146 2.811,2.221 3.916,2.221"
             style="fill:#194151;fill-opacity:1;fill-rule:nonzero;stroke:none"
             id="path3033" /></g><g
           id="g3035"
           transform="translate(76.5254,27.7617)"><path
             d="M 0,0 C 1.026,0 1.9,0.773 1.9,2.037 1.9,3.314 1.026,4.121 0,4.121 -1.023,4.121 -1.899,3.314 -1.899,2.037 -1.899,0.773 -1.023,0 0,0 m -0.015,6.486 c 2.647,0 4.744,-1.791 4.744,-4.449 0,-2.644 -2.097,-4.4 -4.729,-4.4 -2.632,0 -4.729,1.756 -4.729,4.4 0,2.658 2.097,4.449 4.714,4.449"
             style="fill:#194151;fill-opacity:1;fill-rule:nonzero;stroke:none"
             id="path3037" /></g><g
           id="g3039"
           transform="translate(87.1348,27.748)"><path
             d="M 0,0 C 0.877,0 1.642,0.719 1.642,2.02 1.642,3.281 0.976,4.102 0,4.102 -0.846,4.102 -1.64,3.479 -1.64,2.02 -1.64,1 -1.104,0 0,0 m -4.367,6.844 c 0,0.226 -0.133,0.361 -0.361,0.361 l -0.618,0 0,2.379 2.602,0 c 0.826,0 1.183,-0.361 1.183,-1.199 l 0,-1.987 c 0,-0.427 -0.031,-0.722 -0.031,-0.722 l 0.031,0 c 0,0 0.78,0.824 2.26,0.824 2.274,0 3.77,-1.809 3.77,-4.434 0,-2.675 -1.673,-4.416 -3.901,-4.416 -1.541,0 -2.288,0.871 -2.288,0.871 l -0.034,0 c 0,0 0.019,-0.214 0.019,-0.476 l 0,-0.197 -2.632,0 0,8.996 z"
             style="fill:#194151;fill-opacity:1;fill-rule:nonzero;stroke:none"
             id="path3041" /></g><g
           id="g3043"
           transform="translate(93.293,31.3066)"><path
             d="m 0,0 c 0,0.229 -0.131,0.363 -0.358,0.363 l -0.619,0 0,2.379 2.486,0 c 0.764,0 1.19,-0.312 1.19,-1.082 l 0,-0.445 C 2.699,0.949 2.664,0.789 2.664,0.789 l 0.035,0 c 0.357,1.148 1.409,2.102 2.663,2.102 0.163,0 0.325,-0.034 0.325,-0.034 l 0,-2.789 c 0,0 -0.225,0.049 -0.568,0.049 C 4.454,0.117 3.363,-0.1 2.958,-1.363 2.858,-1.676 2.81,-2.051 2.81,-2.51 l 0,-3.201 -2.81,0 L 0,0 z"
             style="fill:#194151;fill-opacity:1;fill-rule:nonzero;stroke:none"
             id="path3045" /></g><g
           id="g3047"
           transform="translate(102.9717,27.5645)"><path
             d="m 0,0 c 0.736,0 1.385,0.807 1.385,1.496 l 0,0.129 -0.259,0 C 0.229,1.625 -0.791,1.379 -0.791,0.707 -0.791,0.314 -0.549,0 0,0 m 1.24,3.35 0.114,0 0,0.099 c 0,0.803 -0.376,1.098 -1.073,1.098 -0.359,0 -0.732,-0.08 -0.732,-0.412 l 0,-0.375 -2.6,0 0,0.931 c 0,1.891 2.373,1.993 3.332,1.993 2.923,0 3.882,-1.512 3.882,-3.45 l 0,-2.461 c 0,-0.23 0.128,-0.361 0.356,-0.361 l 0.619,0 0,-2.381 -2.439,0 c -0.809,0 -1.104,0.51 -1.104,0.889 l 0,0.144 -0.033,0 c 0,0 -0.584,-1.23 -2.338,-1.23 -1.56,0 -2.842,1.053 -2.842,2.725 0,2.509 3.556,2.791 4.858,2.791"
             style="fill:#194151;fill-opacity:1;fill-rule:nonzero;stroke:none"
             id="path3049" /></g><g
           id="g3051"
           transform="translate(35.541,56.8223)"><path
             d="m 0,0 c 0.006,0.246 0.177,0.42 0.415,0.422 0.419,0.012 0.84,0.012 1.259,0 C 1.913,0.42 2.084,0.246 2.088,0 c 0.009,-0.428 0.009,-0.855 0,-1.281 -0.004,-0.26 -0.185,-0.432 -0.437,-0.438 l -0.614,0 -0.599,0 C 0.184,-1.713 0.006,-1.541 0,-1.281 -0.006,-0.855 -0.006,-0.43 0,0 m 0,3.975 c 0,0.281 0.17,0.462 0.442,0.464 0.402,0.008 0.801,0.008 1.2,0 C 1.922,4.437 2.088,4.256 2.095,3.963 2.095,3.564 2.096,3.166 2.091,2.766 2.088,2.465 1.913,2.291 1.624,2.287 l -0.584,0 -0.584,0 C 0.179,2.291 0,2.469 0,2.756 -0.004,3.16 -0.004,3.568 0,3.975 m 2.088,-9.26 C 2.085,-5.543 1.919,-5.721 1.672,-5.729 1.258,-5.736 0.844,-5.736 0.429,-5.729 0.17,-5.725 0.002,-5.543 0,-5.279 c -0.006,0.416 -0.006,0.834 0,1.246 0.002,0.273 0.18,0.447 0.44,0.453 0.207,0.006 0.413,0 0.617,0 0.198,0 0.399,0.006 0.6,0 0.25,-0.008 0.428,-0.18 0.431,-0.443 0.009,-0.418 0.009,-0.842 0,-1.262 M 0,-8.051 c 0.006,0.278 0.175,0.459 0.448,0.463 0.399,0.006 0.797,0.006 1.196,0 0.269,-0.004 0.444,-0.185 0.447,-0.463 0.005,-0.408 0.005,-0.812 0,-1.219 C 2.088,-9.557 1.913,-9.736 1.633,-9.736 1.24,-9.74 0.846,-9.74 0.45,-9.736 c -0.277,0 -0.448,0.181 -0.451,0.47 -0.003,0.209 -0.001,0.411 -0.001,0.618 0,0.197 -0.002,0.398 0.002,0.597 m 2.091,-5.23 c -0.003,-0.291 -0.182,-0.461 -0.465,-0.463 -0.196,-0.006 -0.399,0 -0.597,0 -0.185,0 -0.377,-0.006 -0.567,0 -0.28,0 -0.46,0.172 -0.462,0.457 -0.004,0.412 -0.004,0.822 0,1.236 0.002,0.268 0.173,0.446 0.437,0.451 0.407,0.01 0.808,0.01 1.214,0 0.271,-0.005 0.437,-0.185 0.44,-0.468 0.005,-0.407 0.005,-0.811 0,-1.213 m 0.004,-3.994 c -0.007,-0.301 -0.176,-0.477 -0.469,-0.481 -0.191,-0.002 -0.386,0 -0.578,0 -0.202,0 -0.401,-0.002 -0.6,0 -0.273,0.008 -0.446,0.18 -0.448,0.463 -0.004,0.4 -0.004,0.807 0,1.213 0,0.291 0.173,0.471 0.453,0.476 l 1.18,0 c 0.28,-0.005 0.455,-0.185 0.458,-0.474 0.005,-0.397 0.004,-0.797 0.004,-1.197 m -0.004,-4.02 c -0.003,-0.289 -0.178,-0.469 -0.456,-0.471 -0.392,-0.005 -0.788,-0.005 -1.18,0 -0.28,0.002 -0.455,0.182 -0.455,0.471 -0.004,0.404 -0.004,0.811 0,1.217 0,0.277 0.177,0.453 0.448,0.463 0.199,0.004 0.396,0.002 0.596,0.002 l 0.581,0 c 0.288,-0.004 0.463,-0.184 0.47,-0.483 0,-0.404 10e-4,-0.799 -0.004,-1.199 m 0,-3.934 c -0.003,-0.287 -0.178,-0.466 -0.456,-0.472 -0.392,-0.002 -0.788,-0.002 -1.18,0 -0.28,0.006 -0.455,0.185 -0.455,0.472 -0.004,0.405 -0.004,0.813 0,1.215 0,0.284 0.177,0.459 0.448,0.465 0.199,0.008 0.396,0.004 0.596,0.004 0.196,0 0.388,0.004 0.581,-0.004 0.288,-0.004 0.463,-0.18 0.47,-0.478 0,-0.401 10e-4,-0.797 -0.004,-1.202 m 0,-3.861 c -0.003,-0.293 -0.178,-0.471 -0.456,-0.478 -0.392,-0.002 -0.788,-0.002 -1.18,0 -0.28,0.007 -0.455,0.183 -0.455,0.476 -0.004,0.403 -0.004,0.809 0,1.213 0,0.277 0.177,0.461 0.448,0.467 0.199,0.006 0.396,0 0.596,0 0.196,0 0.388,0.004 0.581,0 0.288,-0.006 0.463,-0.186 0.47,-0.481 0,-0.402 10e-4,-0.8 -0.004,-1.197 m 2.02,33.074 c 0.003,0.264 0.173,0.448 0.426,0.455 0.415,0.008 0.829,0.008 1.244,0 C 6.027,4.432 6.196,4.256 6.202,4 6.209,3.574 6.209,3.156 6.202,2.732 6.196,2.465 6.015,2.297 5.757,2.287 c -0.204,-0.002 -0.403,0 -0.604,0 -0.198,0 -0.398,-0.002 -0.595,0 C 4.297,2.297 4.116,2.471 4.112,2.738 4.106,3.154 4.107,3.572 4.111,3.984 m 2.091,-21.3 c -0.006,-0.262 -0.184,-0.432 -0.44,-0.44 -0.201,-0.002 -0.41,0 -0.613,0 -0.194,0 -0.389,-0.002 -0.584,0 -0.278,0.008 -0.451,0.18 -0.456,0.471 -0.002,0.406 -0.002,0.812 0.002,1.217 0.003,0.277 0.177,0.459 0.448,0.459 0.398,0.005 0.796,0.005 1.198,0 0.264,0 0.439,-0.172 0.445,-0.446 0.007,-0.42 0.009,-0.843 0,-1.261 m 2.026,5.287 c 0.004,0.246 0.173,0.422 0.409,0.429 0.426,0.01 0.846,0.01 1.265,0 0.237,-0.007 0.409,-0.183 0.412,-0.429 0.012,-0.426 0.011,-0.856 0.002,-1.28 -0.005,-0.261 -0.187,-0.431 -0.439,-0.435 -0.205,-0.006 -0.41,0 -0.609,0 -0.203,0 -0.406,-0.006 -0.604,0 -0.25,0.004 -0.432,0.174 -0.438,0.435 -0.008,0.424 -0.008,0.854 0.002,1.28 m 2.093,6.771 c -0.008,-0.289 -0.177,-0.471 -0.459,-0.471 -0.395,-0.007 -0.788,-0.007 -1.181,0 -0.285,0.004 -0.453,0.182 -0.455,0.473 -0.007,0.397 -0.007,0.797 0,1.197 0.002,0.301 0.171,0.475 0.463,0.479 l 0.582,0 0.584,0 c 0.289,-0.004 0.459,-0.18 0.466,-0.479 0.002,-0.4 0.003,-0.8 0,-1.199 m 0,-3.986 c -0.008,-0.311 -0.177,-0.492 -0.473,-0.492 -0.386,-0.004 -0.775,-0.004 -1.165,0 -0.28,0 -0.455,0.179 -0.457,0.466 -0.007,0.405 -0.007,0.811 0,1.213 0.002,0.284 0.171,0.465 0.444,0.469 0.397,0.006 0.797,0.006 1.197,0 0.277,-0.004 0.445,-0.185 0.454,-0.476 0.002,-0.206 0,-0.411 0,-0.616 l 0,-0.564 m -2.095,9.221 c 0.005,0.275 0.175,0.445 0.44,0.447 0.405,0.01 0.813,0.01 1.212,0 0.266,-0.002 0.435,-0.18 0.438,-0.449 0.008,-0.414 0.008,-0.825 0,-1.235 -0.003,-0.279 -0.179,-0.455 -0.449,-0.459 l -0.615,0 -0.582,0 c -0.262,0.006 -0.439,0.178 -0.444,0.448 -0.007,0.416 -0.007,0.832 0,1.248 m 0,3.998 c 0.002,0.281 0.17,0.462 0.445,0.464 0.4,0.008 0.796,0.008 1.196,0 0.279,-0.002 0.447,-0.185 0.454,-0.478 0.002,-0.398 0.003,-0.801 0,-1.197 C 10.313,2.467 10.137,2.289 9.847,2.287 l -0.579,0 -0.57,0 c -0.29,0.002 -0.47,0.176 -0.472,0.473 -0.007,0.406 -0.007,0.812 0,1.215 m 4.117,-3.985 c 10e-4,0.258 0.171,0.43 0.42,0.432 0.415,0.012 0.826,0.012 1.245,0 0.245,-0.002 0.416,-0.176 0.42,-0.434 0.006,-0.42 0.006,-0.843 0.003,-1.259 -0.007,-0.274 -0.186,-0.444 -0.452,-0.448 l -0.595,0 -0.598,0 c -0.264,0.004 -0.442,0.174 -0.447,0.448 -0.009,0.419 -0.009,0.841 0.004,1.261 m 0,4.012 c 10e-4,0.254 0.171,0.43 0.42,0.437 0.415,0.008 0.826,0.008 1.245,0 0.245,-0.007 0.416,-0.183 0.419,-0.437 0.007,-0.424 0.007,-0.842 0.004,-1.266 -0.007,-0.267 -0.186,-0.439 -0.452,-0.449 -0.201,-0.002 -0.408,0 -0.61,0 -0.195,0 -0.39,-0.002 -0.583,0 -0.264,0.01 -0.442,0.18 -0.447,0.449 -0.009,0.424 -0.009,0.842 0.004,1.266 m 2.088,-21.314 c -0.007,-0.264 -0.181,-0.432 -0.435,-0.444 l -0.033,0 -0.581,0 c -0.2,0 -0.397,-0.002 -0.599,0 -0.262,0.008 -0.439,0.178 -0.444,0.449 -0.009,0.412 -0.009,0.832 0,1.25 0.005,0.268 0.177,0.444 0.439,0.448 0.406,0.005 0.811,0.007 1.216,0 0.253,-0.004 0.43,-0.18 0.434,-0.44 0.006,-0.422 0.006,-0.846 0.003,-1.263 m 0.001,-3.381 c 0,-0.194 10e-4,-0.389 0,-0.582 -0.005,-0.309 -0.171,-0.489 -0.471,-0.493 -0.383,-0.002 -0.767,-0.002 -1.148,0 -0.304,0.004 -0.47,0.178 -0.475,0.487 -0.003,0.396 -0.003,0.791 0,1.181 0.005,0.301 0.171,0.483 0.463,0.485 0.387,0.002 0.777,0.002 1.162,0 0.29,-0.002 0.461,-0.182 0.468,-0.479 0.002,-0.197 0.001,-0.398 0.001,-0.599 m 0,-3.934 c 0,-0.193 10e-4,-0.389 0,-0.58 -0.005,-0.309 -0.171,-0.49 -0.471,-0.494 -0.383,-0.002 -0.767,-0.002 -1.148,0 -0.304,0.004 -0.47,0.181 -0.475,0.492 -0.003,0.389 -0.003,0.783 0,1.176 0.005,0.303 0.171,0.482 0.463,0.484 0.387,0.008 0.777,0.008 1.162,0 0.29,-0.002 0.461,-0.18 0.468,-0.478 0.002,-0.198 0.001,-0.401 0.001,-0.6 m 0,-4.447 c -0.005,-0.313 -0.171,-0.492 -0.471,-0.494 l -1.148,0 c -0.304,0.002 -0.47,0.181 -0.475,0.488 -0.003,0.396 -0.003,0.787 0,1.185 0.005,0.297 0.171,0.477 0.463,0.483 0.387,0.004 0.777,0.004 1.162,0 0.29,-0.006 0.461,-0.186 0.468,-0.481 0.002,-0.201 0.001,-0.4 0.001,-0.595 0,-0.201 10e-4,-0.389 0,-0.586 m -2.089,17.039 c 10e-4,0.254 0.171,0.43 0.42,0.435 0.415,0.01 0.826,0.01 1.245,0 0.254,-0.005 0.416,-0.187 0.423,-0.451 0.003,-0.412 0.003,-0.824 0,-1.23 -0.004,-0.291 -0.182,-0.461 -0.464,-0.463 -0.194,-0.006 -0.386,0 -0.583,0 -0.2,0 -0.399,-0.006 -0.598,0 -0.264,0.002 -0.442,0.174 -0.447,0.441 -0.009,0.424 -0.009,0.846 0.004,1.268 m -0.004,3.972 c 0.004,0.293 0.174,0.471 0.458,0.475 0.391,0.006 0.785,0.006 1.177,0 0.28,-0.004 0.453,-0.185 0.457,-0.475 0.002,-0.402 0.003,-0.806 0,-1.212 -0.004,-0.28 -0.178,-0.457 -0.452,-0.461 -0.198,-0.008 -0.395,-0.002 -0.595,-0.002 -0.195,0 -0.39,-0.002 -0.583,0.002 -0.288,0.002 -0.458,0.179 -0.463,0.48 -0.003,0.397 -0.003,0.797 0.001,1.193 m -0.001,4.02 c 0.007,0.283 0.176,0.461 0.449,0.463 l 1.197,0 c 0.269,-0.004 0.443,-0.18 0.447,-0.463 0.003,-0.404 0.002,-0.812 0,-1.215 -0.004,-0.289 -0.176,-0.467 -0.457,-0.471 -0.393,-0.007 -0.789,-0.007 -1.181,0 -0.284,0.004 -0.449,0.182 -0.455,0.473 -0.003,0.199 0,0.397 0,0.6 0,0.205 -0.004,0.41 0,0.613 m -2.017,-13.234 c -0.007,-0.299 -0.177,-0.471 -0.466,-0.479 l -0.015,0 -0.569,0 c -0.198,0 -0.4,-0.002 -0.6,0 -0.27,0.008 -0.443,0.18 -0.445,0.463 -0.007,0.404 -0.007,0.807 0,1.213 0.002,0.291 0.171,0.471 0.455,0.476 l 1.181,0 c 0.282,-0.005 0.451,-0.185 0.459,-0.474 0.003,-0.397 0.002,-0.797 0,-1.199 m 0,-3.42 c 0,-0.198 0.003,-0.397 0,-0.598 -0.01,-0.289 -0.177,-0.469 -0.459,-0.471 -0.395,-0.005 -0.788,-0.005 -1.18,0 -0.281,0.002 -0.454,0.182 -0.456,0.471 -0.007,0.406 -0.007,0.813 0,1.217 0.002,0.277 0.179,0.461 0.445,0.463 0.4,0.004 0.8,0.004 1.2,0 0.268,-0.002 0.44,-0.188 0.45,-0.463 0.003,-0.203 0,-0.41 0,-0.619 m 0,-3.93 c 0,-0.197 0.003,-0.398 0,-0.602 -0.01,-0.287 -0.177,-0.466 -0.459,-0.472 -0.395,-0.002 -0.788,-0.002 -1.18,0 -0.281,0.006 -0.454,0.185 -0.456,0.472 -0.007,0.409 -0.007,0.813 0,1.215 0.002,0.284 0.179,0.463 0.445,0.465 0.4,0.008 0.8,0.008 1.2,0 0.268,-0.002 0.44,-0.181 0.45,-0.465 0.003,-0.201 0,-0.406 0,-0.613 m -4.117,3.352 c -0.002,-0.311 -0.175,-0.489 -0.472,-0.493 -0.381,-0.002 -0.765,-0.002 -1.146,0 -0.299,0.004 -0.474,0.178 -0.477,0.487 l 0,1.181 c 0.003,0.299 0.178,0.483 0.465,0.485 0.386,0.002 0.774,0.002 1.164,0 0.288,-0.002 0.458,-0.182 0.466,-0.479 l 0,-0.035 0,-0.564 c 0,-0.194 0.002,-0.389 0,-0.582 m 0,-3.932 c -0.002,-0.309 -0.175,-0.49 -0.472,-0.494 -0.381,-0.002 -0.765,-0.002 -1.146,0 -0.299,0.004 -0.474,0.181 -0.477,0.492 l 0,1.176 c 0.003,0.303 0.178,0.482 0.465,0.484 0.386,0.008 0.774,0.008 1.164,0 0.288,-0.002 0.458,-0.18 0.466,-0.478 l 0,-0.032 0,-0.568 c 0,-0.193 0.002,-0.389 0,-0.58 m -2.093,13.15 c 0.003,0.272 0.173,0.452 0.434,0.457 0.41,0.01 0.82,0.01 1.227,0 0.255,-0.005 0.427,-0.183 0.43,-0.449 0.007,-0.416 0.007,-0.83 0,-1.244 -0.003,-0.279 -0.181,-0.449 -0.46,-0.451 -0.199,-0.006 -0.396,0 -0.594,0 -0.196,0 -0.388,-0.006 -0.583,0 -0.27,0.002 -0.451,0.174 -0.454,0.455 -0.004,0.41 -0.004,0.818 0,1.232 M 6.202,-1.271 C 6.196,-1.547 6.018,-1.715 5.757,-1.719 l -0.598,0 -0.584,0 c -0.283,0 -0.461,0.172 -0.464,0.463 -0.004,0.41 -0.004,0.82 0,1.231 0.003,0.273 0.176,0.447 0.441,0.449 0.403,0.01 0.806,0.01 1.21,0 0.264,-0.002 0.437,-0.174 0.44,-0.449 0.007,-0.418 0.007,-0.834 0,-1.246 m 0,-4.02 C 6.196,-5.545 6.025,-5.725 5.777,-5.729 c -0.412,-0.007 -0.829,-0.007 -1.242,0 -0.256,0.008 -0.421,0.19 -0.424,0.454 -0.004,0.412 -0.004,0.824 0,1.232 0.003,0.283 0.177,0.457 0.448,0.463 l 0.6,0 0.598,0 c 0.265,-0.004 0.439,-0.178 0.445,-0.445 0.007,-0.422 0.007,-0.846 0,-1.266 M 6.204,-9.264 C 6.199,-9.559 6.026,-9.736 5.738,-9.736 c -0.39,-0.004 -0.778,-0.004 -1.164,0 -0.29,0 -0.462,0.181 -0.465,0.48 l 0,1.184 c 0.003,0.304 0.176,0.482 0.477,0.486 0.381,0.004 0.765,0.004 1.146,0 C 6.029,-7.59 6.199,-7.77 6.204,-8.08 l 0,-0.014 0,-0.586 c 0,-0.195 0.002,-0.384 0,-0.584 m -2.412,-22.234 0.022,0 0.302,0 c -0.004,0.025 -0.007,0.053 -0.007,0.08 l 0,3.549 c 0.003,0.295 0.178,0.478 0.465,0.478 0.386,0.004 0.774,0.004 1.164,0.002 0.288,-0.002 0.458,-0.179 0.466,-0.478 l 0,-0.033 0,-0.565 c 0,-0.195 0.002,-2.754 0,-2.949 0,-0.031 -0.002,-0.057 -0.005,-0.084 l 2.029,0 c 0,0.023 -0.002,0.041 -0.002,0.062 -0.007,0.409 -0.007,3.178 0,3.582 0.002,0.28 0.179,0.461 0.445,0.463 0.4,0.008 0.8,0.008 1.2,0 0.268,-0.002 0.44,-0.187 0.45,-0.463 0.003,-0.207 0,-0.41 0,-0.615 0,-0.201 0.003,-2.765 0,-2.967 -0.005,-0.021 -0.007,-0.039 -0.009,-0.062 l 5.033,0 0,37.934 -16.517,0 0,-37.934 4.964,0 z"
             style="fill:#194151;fill-opacity:1;fill-rule:nonzero;stroke:none"
             id="path3053" /></g><g
           id="g3055"
           transform="translate(31.7764,27.9766)"><path
             d="m 0,0 c 0,-0.133 -0.105,-0.238 -0.235,-0.238 l -1.966,0 c -0.13,0 -0.237,0.105 -0.237,0.238 l 0,1.492 c 0,0.129 0.107,0.235 0.237,0.235 l 1.966,0 C -0.105,1.727 0,1.621 0,1.492 L 0,0 z m -2.636,3.424 0,1.492 c 0,0.129 0.108,0.236 0.235,0.236 l 1.966,0 c 0.129,0 0.235,-0.107 0.235,-0.236 l 0,-1.492 c 0,-0.133 -0.106,-0.24 -0.235,-0.24 l -1.966,0 c -0.127,0 -0.235,0.107 -0.235,0.24 m -0.031,4.361 c 0,0.131 0.108,0.238 0.238,0.238 l 1.965,0 c 0.129,0 0.235,-0.107 0.235,-0.238 l 0,-1.492 c 0,-0.133 -0.106,-0.238 -0.235,-0.238 l -1.965,0 c -0.13,0 -0.238,0.105 -0.238,0.238 l 0,1.492 z m -0.032,2.871 c 0,0.131 0.107,0.237 0.236,0.237 l 1.967,0 c 0.128,0 0.237,-0.106 0.237,-0.237 l 0,-1.492 c 0,-0.133 -0.109,-0.238 -0.237,-0.238 l -1.967,0 c -0.129,0 -0.236,0.105 -0.236,0.238 l 0,1.492 z m -0.03,2.867 c 0,0.135 0.109,0.241 0.237,0.241 l 1.967,0 c 0.129,0 0.236,-0.106 0.236,-0.241 l 0,-1.492 c 0,-0.133 -0.107,-0.236 -0.236,-0.236 l -1.967,0 c -0.128,0 -0.237,0.103 -0.237,0.236 l 0,1.492 z M -4.067,3.424 c 0,-0.133 -0.108,-0.24 -0.237,-0.24 l -1.967,0 c -0.13,0 -0.237,0.107 -0.237,0.24 l 0,1.492 c 0,0.129 0.107,0.236 0.237,0.236 l 1.967,0 c 0.129,0 0.237,-0.107 0.237,-0.236 l 0,-1.492 z m -2.469,2.869 0,1.492 c 0,0.131 0.109,0.238 0.236,0.238 l 1.967,0 c 0.127,0 0.234,-0.107 0.234,-0.238 l 0,-1.492 c 0,-0.133 -0.107,-0.238 -0.234,-0.238 l -1.967,0 c -0.127,0 -0.236,0.105 -0.236,0.238 m -0.029,4.363 c 0,0.131 0.106,0.237 0.234,0.237 l 1.966,0 c 0.128,0 0.237,-0.106 0.237,-0.237 l 0,-1.492 c 0,-0.133 -0.109,-0.238 -0.237,-0.238 l -1.966,0 c -0.128,0 -0.234,0.105 -0.234,0.238 l 0,1.492 z m -0.033,2.867 c 0,0.135 0.109,0.241 0.242,0.241 l 1.959,0 c 0.128,0 0.238,-0.106 0.238,-0.241 l 0,-1.492 c 0,-0.133 -0.11,-0.236 -0.238,-0.236 l -1.959,0 c -0.133,0 -0.242,0.103 -0.242,0.236 l 0,1.492 z M -7.727,3.424 c 0,-0.133 -0.103,-0.24 -0.231,-0.24 l -1.966,0 c -0.128,0 -0.237,0.107 -0.237,0.24 l 0,1.492 c 0,0.129 0.109,0.236 0.237,0.236 l 1.966,0 c 0.128,0 0.231,-0.107 0.231,-0.236 l 0,-1.492 z m -2.462,2.869 0,1.492 c 0,0.131 0.106,0.238 0.234,0.238 l 1.963,0 c 0.13,0 0.239,-0.107 0.239,-0.238 l 0,-1.492 c 0,-0.133 -0.109,-0.238 -0.239,-0.238 l -1.963,0 c -0.128,0 -0.234,0.105 -0.234,0.238 m -0.034,4.363 c 0,0.131 0.109,0.237 0.238,0.237 l 1.965,0 c 0.129,0 0.24,-0.106 0.24,-0.237 l 0,-1.492 c 0,-0.133 -0.111,-0.238 -0.24,-0.238 l -1.965,0 c -0.129,0 -0.238,0.105 -0.238,0.238 l 0,1.492 z m -0.03,2.867 c 0,0.135 0.107,0.241 0.237,0.241 l 1.966,0 c 0.13,0 0.237,-0.106 0.237,-0.241 l 0,-1.492 c 0,-0.133 -0.107,-0.236 -0.237,-0.236 l -1.966,0 c -0.13,0 -0.237,0.103 -0.237,0.236 l 0,1.492 z M -11.472,3.424 c 0,-0.133 -0.104,-0.24 -0.239,-0.24 l -1.96,0 c -0.131,0 -0.24,0.107 -0.24,0.24 l 0,1.492 c 0,0.129 0.109,0.236 0.24,0.236 l 1.96,0 c 0.135,0 0.239,-0.107 0.239,-0.236 l 0,-1.492 z M -11.576,0 c 0,-0.133 -0.11,-0.238 -0.24,-0.238 l -1.964,0 c -0.131,0 -0.237,0.105 -0.237,0.238 l 0,1.492 c 0,0.129 0.106,0.235 0.237,0.235 l 1.964,0 c 0.13,0 0.24,-0.106 0.24,-0.235 l 0,-1.492 z m -2.423,13.531 c 0,0.127 0.105,0.235 0.238,0.235 l 1.96,0 c 0.13,0 0.238,-0.108 0.238,-0.235 l 0,-1.5 c 0,-0.133 -0.108,-0.236 -0.238,-0.236 l -1.96,0 c -0.133,0 -0.238,0.103 -0.238,0.236 l 0,1.5 z m 0.045,3.36 c 0,0.134 0.105,0.236 0.235,0.236 l 1.965,0 c 0.128,0 0.234,-0.102 0.234,-0.236 l 0,-1.491 c 0,-0.134 -0.106,-0.244 -0.234,-0.244 l -1.965,0 c -0.13,0 -0.235,0.11 -0.235,0.244 l 0,1.491 z m -0.014,-7.727 0,1.492 c 0,0.131 0.106,0.237 0.235,0.237 l 1.962,0 c 0.133,0 0.237,-0.106 0.237,-0.237 l 0,-1.492 c 0,-0.133 -0.104,-0.238 -0.237,-0.238 l -1.962,0 c -0.129,0 -0.235,0.105 -0.235,0.238 m 0.03,-1.379 c 0,0.131 0.106,0.238 0.237,0.238 l 1.964,0 c 0.129,0 0.235,-0.107 0.235,-0.238 l 0,-1.492 c 0,-0.133 -0.106,-0.238 -0.235,-0.238 l -1.964,0 c -0.131,0 -0.237,0.105 -0.237,0.238 l 0,1.492 z m 3.73,9.106 c 0,0.134 0.108,0.236 0.236,0.236 l 1.965,0 c 0.132,0 0.237,-0.102 0.237,-0.236 l 0,-1.491 c 0,-0.134 -0.105,-0.244 -0.237,-0.244 l -1.965,0 c -0.128,0 -0.236,0.11 -0.236,0.244 l 0,1.491 z m 3.656,0 c 0,0.134 0.108,0.236 0.237,0.236 l 1.965,0 c 0.13,0 0.238,-0.102 0.238,-0.236 l 0,-1.491 c 0,-0.134 -0.108,-0.244 -0.238,-0.244 l -1.965,0 c -0.129,0 -0.237,0.11 -0.237,0.244 l 0,1.491 z m 3.87,0 c 0,0.134 0.11,0.236 0.236,0.236 l 1.967,0 c 0.128,0 0.237,-0.102 0.237,-0.236 l 0,-1.491 c 0,-0.134 -0.109,-0.244 -0.237,-0.244 l -1.967,0 c -0.126,0 -0.236,0.11 -0.236,0.244 l 0,1.491 z m 3.521,1.685 -15.701,0 c -0.128,0 -0.235,-0.107 -0.235,-0.236 l 0,-20.756 c 0,-0.131 0.107,-0.236 0.235,-0.236 l 4.701,0 0,4.144 c 0,0.129 0.109,0.235 0.237,0.235 l 1.966,0 c 0.128,0 0.231,-0.106 0.231,-0.235 l 0,-4.144 1.219,0 0,4.144 c 0,0.129 0.107,0.235 0.237,0.235 l 1.967,0 c 0.129,0 0.237,-0.106 0.237,-0.235 l 0,-4.144 4.906,0 c 0.129,0 0.235,0.105 0.235,0.236 l 0,20.756 c 0,0.129 -0.106,0.236 -0.235,0.236"
             style="fill:#194151;fill-opacity:1;fill-rule:nonzero;stroke:none"
             id="path3057" /></g></g></g></g></svg>