<?xml version="1.0" encoding="UTF-8" standalone="no"?>
<!-- Created with Inkscape (http://www.inkscape.org/) -->

<svg
   xmlns:dc="http://purl.org/dc/elements/1.1/"
   xmlns:cc="http://creativecommons.org/ns#"
   xmlns:rdf="http://www.w3.org/1999/02/22-rdf-syntax-ns#"
   xmlns:svg="http://www.w3.org/2000/svg"
   xmlns="http://www.w3.org/2000/svg"
   xmlns:sodipodi="http://sodipodi.sourceforge.net/DTD/sodipodi-0.dtd"
   xmlns:inkscape="http://www.inkscape.org/namespaces/inkscape"
   id="svg3205"
   version="1.1"
   inkscape:version="0.48.4 r9939"
   viewBox="0 0 157.42 103.75"
   xml:space="preserve"
   sodipodi:docname="imagens para exportar.ai"><metadata
     id="metadata3211"><rdf:RDF><cc:Work
         rdf:about=""><dc:format>image/svg+xml</dc:format><dc:type
           rdf:resource="http://purl.org/dc/dcmitype/StillImage" /><dc:title></dc:title></cc:Work></rdf:RDF></metadata><defs
     id="defs3209"><clipPath
       clipPathUnits="userSpaceOnUse"
       id="clipPath3219"><path
         d="m 0,83 125.936,0 0,-83 L 0,0 0,83 z"
         id="path3221" /></clipPath></defs><sodipodi:namedview
     pagecolor="#ffffff"
     bordercolor="#666666"
     borderopacity="1"
     objecttolerance="10"
     gridtolerance="10"
     guidetolerance="10"
     inkscape:pageopacity="0"
     inkscape:pageshadow="2"
     inkscape:window-width="640"
     inkscape:window-height="480"
     id="namedview3207"
     showgrid="false"
     inkscape:zoom="2.2746988"
     inkscape:cx="78.709999"
     inkscape:cy="51.875"
     inkscape:window-x="0"
     inkscape:window-y="0"
     inkscape:window-maximized="0"
     inkscape:current-layer="g3213" /><g
     id="g3213"
     inkscape:groupmode="layer"
     inkscape:label="imagens para exportar"
     transform="matrix(1.25,0,0,-1.25,0,103.75)"><g
       id="g3215"><g
         id="g3217"
         clip-path="url(#clipPath3219)"><g
           id="g3223"
           transform="translate(44.0371,46.9883)"><path
             d="M 0,0 C 2.373,0 3.541,-1.232 3.541,-1.232 L 2.526,-2.518 c 0,0 -1.01,0.864 -2.487,0.864 -1.681,0 -3.113,-1.328 -3.113,-3.295 0,-2.123 1.45,-3.42 3.183,-3.42 1.544,0 2.46,1.015 2.46,1.015 l 0,0.725 c 0,0.201 -0.108,0.299 -0.297,0.299 l -0.593,0 0,1.516 1.574,0 c 0.657,0 0.928,-0.274 0.928,-0.915 l 0,-4.142 -1.532,0 0,0.467 c 0,0.201 0.019,0.41 0.019,0.41 l -0.029,0 c 0,0 -1.041,-1.041 -2.857,-1.041 -2.547,0 -4.716,1.939 -4.716,5.072 C -4.934,-2.178 -2.815,0 0,0"
             style="fill:#194151;fill-opacity:1;fill-rule:nonzero;stroke:none"
             id="path3225" /></g><g
           id="g3227"
           transform="translate(54.0918,41.5059)"><path
             d="M 0,0 C -0.024,0.832 -0.597,1.408 -1.31,1.408 -2.195,1.408 -2.822,0.873 -3.018,0 L 0,0 z m -1.31,2.746 c 1.995,0 3.09,-1.465 3.09,-3.307 0,-0.205 -0.041,-0.644 -0.041,-0.644 l -4.811,0 c 0.138,-1.229 1.041,-1.873 2.094,-1.873 1.119,0 1.955,0.781 1.955,0.781 l 0.718,-1.205 c 0,0 -1.06,-1.051 -2.799,-1.051 -2.309,0 -3.742,1.666 -3.742,3.649 0,2.148 1.447,3.65 3.536,3.65"
             style="fill:#194151;fill-opacity:1;fill-rule:nonzero;stroke:none"
             id="path3229" /></g><g
           id="g3231"
           transform="translate(60.5332,38.4277)"><path
             d="M 0,0 C 1.133,0 2.078,0.877 2.078,2.174 2.078,3.459 1.133,4.348 0,4.348 -1.124,4.348 -2.063,3.459 -2.063,2.174 -2.063,0.877 -1.124,0 0,0 m 0,5.824 c 2.131,0 3.827,-1.517 3.827,-3.65 0,-2.143 -1.696,-3.649 -3.827,-3.649 -2.117,0 -3.813,1.506 -3.813,3.649 0,2.133 1.696,3.65 3.813,3.65"
             style="fill:#194151;fill-opacity:1;fill-rule:nonzero;stroke:none"
             id="path3233" /></g><g
           id="g3235"
           transform="translate(66.1064,39.7168)"><path
             d="m 0,0 c 0,0 1.001,-1.15 2.351,-1.15 0.739,0 1.398,0.396 1.398,1.15 0,1.648 -4.565,1.514 -4.565,4.535 0,1.57 1.368,2.736 3.238,2.736 1.135,0 2.882,-0.539 2.882,-1.916 l 0,-0.9 -1.61,0 0,0.436 c 0,0.451 -0.644,0.75 -1.285,0.75 -0.822,0 -1.421,-0.424 -1.421,-1.036 0,-1.658 4.564,-1.326 4.564,-4.511 0,-1.547 -1.188,-2.858 -3.224,-2.858 -2.147,0 -3.34,1.506 -3.34,1.506 L 0,0 z"
             style="fill:#194151;fill-opacity:1;fill-rule:nonzero;stroke:none"
             id="path3237" /></g><g
           id="g3239"
           transform="translate(75.2803,38.3066)"><path
             d="m 0,0 c 0.932,0 1.585,0.982 1.585,1.83 l 0,0.164 -0.299,0 C 0.379,1.994 -1.052,1.873 -1.052,0.902 -1.052,0.439 -0.711,0 0,0 m 1.341,3.186 0.217,0 0,0.054 c 0,0.996 -0.394,1.367 -1.285,1.367 -0.317,0 -0.929,-0.086 -0.929,-0.466 l 0,-0.368 -1.613,0 0,0.739 c 0,1.297 1.831,1.433 2.554,1.433 2.327,0 3.009,-1.215 3.009,-2.771 l 0,-2.6 c 0,-0.191 0.11,-0.297 0.301,-0.297 l 0.549,0 0,-1.466 -1.56,0 c -0.644,0 -0.888,0.353 -0.888,0.765 0,0.18 0.01,0.301 0.01,0.301 l -0.023,0 c 0,0 -0.533,-1.231 -2.107,-1.231 -1.244,0 -2.379,0.78 -2.379,2.174 0,2.192 3.008,2.366 4.144,2.366"
             style="fill:#194151;fill-opacity:1;fill-rule:nonzero;stroke:none"
             id="path3241" /></g><g
           id="g3243"
           transform="translate(80.6777,42.3086)"><path
             d="m 0,0 c 0,0.207 -0.106,0.301 -0.302,0.301 l -0.546,0 0,1.476 1.601,0 C 1.365,1.777 1.669,1.49 1.669,1 l 0,-0.203 C 1.669,0.646 1.656,0.49 1.656,0.49 l 0.028,0 c 0.329,0.688 1.162,1.453 2.252,1.453 1.053,0 1.735,-0.49 2.037,-1.433 L 6,0.51 c 0.369,0.748 1.271,1.433 2.376,1.433 1.453,0 2.29,-0.818 2.29,-2.65 l 0,-2.721 c 0,-0.191 0.105,-0.297 0.296,-0.297 l 0.532,0 0,-1.466 -1.636,0 c -0.661,0 -0.932,0.273 -0.932,0.931 l 0,3.223 C 8.926,-0.24 8.778,0.355 7.968,0.355 7.109,0.355 6.491,-0.367 6.301,-1.24 6.222,-1.512 6.19,-1.801 6.19,-2.129 l 0,-3.062 -1.734,0 0,4.154 c 0,0.754 -0.108,1.392 -0.944,1.392 -0.875,0 -1.461,-0.722 -1.681,-1.611 C 1.764,-1.527 1.725,-1.812 1.725,-2.129 l 0,-3.062 L 0,-5.191 0,0 z"
             style="fill:#194151;fill-opacity:1;fill-rule:nonzero;stroke:none"
             id="path3245" /></g><g
           id="g3247"
           transform="translate(96.832,38.416)"><path
             d="m 0,0 c 0.963,0 1.763,0.777 1.763,2.16 0,1.324 -0.708,2.188 -1.735,2.188 -0.9,0 -1.747,-0.657 -1.747,-2.203 C -1.719,1.064 -1.146,0 0,0 m -3.404,3.893 c 0,0.207 -0.106,0.3 -0.299,0.3 l -0.548,0 0,1.477 1.545,0 c 0.645,0 0.876,-0.287 0.876,-0.668 l 0,-0.273 0.027,0 c 0,0 0.588,1.107 2.215,1.107 1.885,0 3.101,-1.488 3.101,-3.65 0,-2.213 -1.368,-3.649 -3.198,-3.649 -1.382,0 -1.995,0.912 -1.995,0.912 l -0.028,0 c 0,0 0.028,-0.242 0.028,-0.599 l 0,-2.881 -1.724,0 0,7.924 z"
             style="fill:#194151;fill-opacity:1;fill-rule:nonzero;stroke:none"
             id="path3249" /></g><g
           id="g3251"
           transform="translate(103.8311,38.3066)"><path
             d="m 0,0 c 0.929,0 1.587,0.982 1.587,1.83 l 0,0.164 -0.301,0 C 0.382,1.994 -1.052,1.873 -1.052,0.902 -1.052,0.439 -0.709,0 0,0 m 1.339,3.186 0.22,0 0,0.054 c 0,0.996 -0.397,1.367 -1.285,1.367 -0.311,0 -0.93,-0.086 -0.93,-0.466 l 0,-0.368 -1.614,0 0,0.739 c 0,1.297 1.832,1.433 2.558,1.433 2.318,0 3.006,-1.215 3.006,-2.771 l 0,-2.6 c 0,-0.191 0.11,-0.297 0.304,-0.297 l 0.544,0 0,-1.466 -1.561,0 c -0.64,0 -0.887,0.353 -0.887,0.765 0,0.18 0.013,0.301 0.013,0.301 l -0.024,0 c 0,0 -0.536,-1.231 -2.106,-1.231 -1.244,0 -2.378,0.78 -2.378,2.174 0,2.192 3.008,2.366 4.14,2.366"
             style="fill:#194151;fill-opacity:1;fill-rule:nonzero;stroke:none"
             id="path3253" /></g><g
           id="g3255"
           transform="translate(23.9512,33.6914)"><path
             d="m 0,0 2.062,0 0.863,0.504 0,4.648 -0.863,1.448 0.614,0.623 0,1.381 1.273,0.687 0,1.723 3.302,-1.498 1.582,0 0,2.966 0.593,0.6 -0.235,0.371 -2.985,0 -1.489,-1.119 -0.519,1.691 0.648,2.123 -1.337,-1.46 -2.153,-0.016 -0.923,0.941 -1.969,0 0.215,-1.302 0.811,0 0.674,-2.571 -0.549,-0.408 0.908,-1.258 -1.373,-1.011 0,-2.112 0.803,-0.808 -0.775,-0.784 0,-0.396 0.538,-0.551 0,-2.535 -0.746,0 0,-0.836 L 0,0 z m 2.281,-0.805 -2.617,0 -1.504,1.518 0,1.975 0.75,0 0,1.396 -0.54,0.547 0,1.056 0.445,0.456 -0.472,0.482 0,2.846 1.054,0.781 -0.144,0.197 -1.025,-0.713 -0.728,1.02 1.742,1.301 -0.374,1.443 -0.875,0 -0.482,2.916 3.259,0 0.922,-0.934 1.456,0.006 1.792,1.967 0.966,-0.586 -0.865,-2.844 0.109,-0.357 0.786,0.59 3.699,0 0.809,-1.287 -0.809,-0.825 0,-3.435 -2.557,0 -2.317,1.051 0,-0.953 -1.279,-0.688 0,-1.23 -0.406,-0.414 0.658,-1.102 0,-5.33 -1.453,-0.85 z"
             style="fill:#194151;fill-opacity:1;fill-rule:nonzero;stroke:none"
             id="path3257" /></g><g
           id="g3259"
           transform="translate(27.0234,50.6738)"><path
             d="m 0,0 c -4.771,0 -8.653,-3.881 -8.653,-8.652 0,-4.774 3.882,-8.647 8.653,-8.647 4.769,0 8.65,3.873 8.65,8.647 C 8.65,-3.881 4.769,0 0,0 m 0,-18.398 c -5.374,0 -9.75,4.373 -9.75,9.746 0,5.375 4.376,9.75 9.75,9.75 5.377,0 9.749,-4.375 9.749,-9.75 0,-5.373 -4.372,-9.746 -9.749,-9.746"
             style="fill:#194151;fill-opacity:1;fill-rule:nonzero;stroke:none"
             id="path3261" /></g><g
           id="g3263"
           transform="translate(24.501,52.3496)"><path
             d="M 0,0 C 0.232,0.057 0.465,0.104 0.698,0.143 L -0.269,3.172 C -0.499,3.129 -0.519,3.131 -0.753,3.074 -0.98,3.016 -0.997,3.006 -1.225,2.938 l 0.538,-3.133 C -0.459,-0.125 -0.23,-0.059 0,0"
             style="fill:#194151;fill-opacity:1;fill-rule:nonzero;stroke:none"
             id="path3265" /></g><g
           id="g3267"
           transform="translate(29.5439,31.6973)"><path
             d="m 0,0 c -0.232,-0.059 -0.466,-0.104 -0.696,-0.148 l 0.963,-3.026 c 0.231,0.043 0.252,0.039 0.482,0.102 0.23,0.052 0.246,0.064 0.472,0.133 L 0.684,0.193 C 0.459,0.121 0.233,0.055 0,0"
             style="fill:#194151;fill-opacity:1;fill-rule:nonzero;stroke:none"
             id="path3269" /></g></g></g></g></svg>