<?xml version="1.0" encoding="UTF-8" standalone="no"?>
<!-- Generator: Adobe Illustrator 21.0.0, SVG Export Plug-In . SVG Version: 6.00 Build 0)  -->

<svg
   xmlns:dc="http://purl.org/dc/elements/1.1/"
   xmlns:cc="http://creativecommons.org/ns#"
   xmlns:rdf="http://www.w3.org/1999/02/22-rdf-syntax-ns#"
   xmlns:svg="http://www.w3.org/2000/svg"
   xmlns="http://www.w3.org/2000/svg"
   xmlns:sodipodi="http://sodipodi.sourceforge.net/DTD/sodipodi-0.dtd"
   xmlns:inkscape="http://www.inkscape.org/namespaces/inkscape"
   version="1.1"
   id="Camada_1"
   x="0px"
   y="0px"
   viewBox="0 0 746.57851 181.8"
   xml:space="preserve"
   inkscape:version="0.48.4 r9939"
   width="100%"
   height="100%"
   sodipodi:docname="Logo Prodam.svg"><metadata
   id="metadata25"><rdf:RDF><cc:Work
       rdf:about=""><dc:format>image/svg+xml</dc:format><dc:type
         rdf:resource="http://purl.org/dc/dcmitype/StillImage" /><dc:title></dc:title></cc:Work></rdf:RDF></metadata><defs
   id="defs23" /><sodipodi:namedview
   pagecolor="#ffffff"
   bordercolor="#666666"
   borderopacity="1"
   objecttolerance="10"
   gridtolerance="10"
   guidetolerance="10"
   inkscape:pageopacity="0"
   inkscape:pageshadow="2"
   inkscape:window-width="1440"
   inkscape:window-height="838"
   id="namedview21"
   showgrid="false"
   fit-margin-top="10"
   fit-margin-left="10"
   fit-margin-right="10"
   fit-margin-bottom="10"
   inkscape:zoom="1.1892899"
   inkscape:cx="437.74656"
   inkscape:cy="104.76311"
   inkscape:window-x="-8"
   inkscape:window-y="-8"
   inkscape:window-maximized="1"
   inkscape:current-layer="Camada_1" />
<style
   type="text/css"
   id="style3">
	.st0{fill-rule:evenodd;clip-rule:evenodd;fill:#002A61;}
	.st1{fill:#FFFFFF;stroke:#1F140F;stroke-miterlimit:10;}
	.st2{fill:none;stroke:#F1A151;stroke-width:2;stroke-miterlimit:10;}
	.st3{fill:#F1A151;}
</style>
<g
   id="g5"
   transform="translate(-47.608487,-14.900003)"
   style="fill:#ffffff">
	<path
   class="st0"
   d="m 187.5,131 c -2.3,6.1 -6.5,11.3 -12.4,15.7 -6,4.3 -12,6.5 -18.1,6.5 h -46.6 c -2.5,0 -4.4,-0.9 -5.5,-2.7 -1.1,-1.8 -1.2,-3.9 -0.2,-6.5 l 3.5,-9.2 c 1,-2.5 2.7,-4.7 5.1,-6.5 2.5,-1.8 5,-2.7 7.5,-2.7 H 162 l 15,-39.7 h -56.5 l -34.7,91.6 c -1,2.5 -2.7,4.7 -5.1,6.5 -2.5,1.8 -5,2.7 -7.5,2.7 H 64 c -2.5,0 -4.4,-0.9 -5.5,-2.7 -1.1,-1.8 -1.2,-3.9 -0.2,-6.5 L 100,67.5 c 1,-2.5 2.7,-4.7 5.1,-6.5 2.5,-1.8 5,-2.7 7.5,-2.7 h 80.2 c 6.1,0 10.5,2.2 13.2,6.5 2.7,4.3 2.9,9.5 0.6,15.7 l -19.1,50.5 0,0 z m 99.6,-37.4 c -1,2.5 -2.7,4.7 -5.1,6.5 -2.5,1.8 -5,2.7 -7.5,2.7 h -9.2 c -2.5,0 -4.4,-0.9 -5.5,-2.7 -1.1,-1.8 -1.2,-3.9 -0.2,-6.5 l 2.9,-7.6 h -24.3 l -22,58 c -1,2.5 -2.7,4.7 -5.1,6.5 -2.5,1.8 -5,2.7 -7.5,2.7 h -9.2 c -2.5,0 -4.4,-0.9 -5.5,-2.7 -1.1,-1.8 -1.2,-3.9 -0.2,-6.5 l 28.9,-76.4 c 1,-2.5 2.7,-4.7 5.1,-6.5 2.5,-1.8 5,-2.7 7.5,-2.7 h 48 c 6.1,0 10.5,2.2 13.2,6.5 2.7,4.3 2.9,9.5 0.6,15.7 l -4.9,13 0,0 z M 393.9,131 c -2.3,6.1 -6.5,11.3 -12.4,15.7 -6,4.3 -12,6.5 -18.1,6.5 h -67.2 c -6.1,0 -10.5,-2.2 -13.2,-6.5 -2.7,-4.3 -2.9,-9.5 -0.6,-15.7 l 19.1,-50.4 c 2.3,-6.1 6.5,-11.3 12.4,-15.7 6,-4.3 12,-6.5 18.1,-6.5 h 67.2 c 6.1,0 10.5,2.2 13.2,6.5 2.7,4.3 2.9,9.5 0.6,15.7 l -19.1,50.4 0,0 z m -25.4,-5.3 15,-39.7 H 327 l -15,39.7 h 56.5 l 0,0 z M 506.6,144 c -1,2.5 -2.7,4.7 -5.1,6.5 -2.5,1.8 -5,2.7 -7.5,2.7 h -9.2 c -2.5,0 -4.4,-0.9 -5.5,-2.7 -1.1,-1.8 -1.2,-3.9 -0.2,-6.5 l 22,-58 h -56.5 l -15,39.7 H 474 c 2.5,0 4.4,0.9 5.5,2.7 1.1,1.8 1.2,3.9 0.2,6.5 l -3.5,9.2 c -1,2.5 -2.7,4.7 -5.1,6.5 -2.5,1.8 -5,2.7 -7.5,2.7 h -49.7 c -6.1,0 -10.5,-2.2 -13.2,-6.5 -2.7,-4.3 -2.9,-9.5 -0.6,-15.7 l 19.1,-50.4 c 2.3,-6.1 6.5,-11.3 12.4,-15.7 6,-4.3 12,-6.5 18.1,-6.5 h 61.9 l 9.3,-24.4 c 1,-2.5 2.7,-4.7 5.1,-6.5 2.5,-1.8 5,-2.7 7.5,-2.7 h 9.2 c 2.5,0 4.4,0.9 5.5,2.7 1.1,1.8 1.2,3.9 0.2,6.5 l -41.8,109.9 0,0 z m 117.6,0 c -1,2.5 -2.7,4.7 -5.1,6.5 -2.5,1.8 -5,2.7 -7.5,2.7 h -80.2 c -6.1,0 -10.5,-2.2 -13.2,-6.5 -2.7,-4.3 -2.9,-9.5 -0.6,-15.7 l 6.4,-16.8 c 2.3,-6.1 6.5,-11.3 12.4,-15.7 6,-4.3 12,-6.5 18.1,-6.5 h 46.6 c 2.5,0 4.4,0.9 5.5,2.7 1.1,1.8 1.2,3.9 0.2,6.5 l -3.5,9.2 c -1,2.5 -2.7,4.7 -5.1,6.5 -2.5,1.8 -5,2.7 -7.5,2.7 h -41.2 l -2.3,6.1 h 56.5 l 15,-39.7 h -58 c -2.5,0 -4.4,-0.9 -5.5,-2.7 -1.1,-1.8 -1.2,-3.9 -0.2,-6.5 l 3.5,-9.2 c 1,-2.5 2.7,-4.7 5.1,-6.5 2.5,-1.8 5,-2.7 7.5,-2.7 h 63.4 c 6.1,0 10.5,2.2 13.2,6.5 2.7,4.3 2.9,9.5 0.6,15.7 l -24.1,63.4 0,0 z m 134.4,0 c -1,2.5 -2.7,4.7 -5.1,6.5 -2.5,1.8 -5,2.7 -7.5,2.7 h -9.2 c -2.5,0 -4.4,-0.9 -5.5,-2.7 -1.1,-1.8 -1.2,-3.9 -0.2,-6.5 l 22,-58 h -22.9 l -22,58 c -1,2.5 -2.7,4.7 -5.1,6.5 -2.5,1.8 -5,2.7 -7.5,2.7 h -9.2 c -2.5,0 -4.4,-0.9 -5.5,-2.7 -1.1,-1.8 -1.2,-3.9 -0.2,-6.5 l 22,-58 h -22.9 l -22,58 c -1,2.5 -2.7,4.7 -5.1,6.5 -2.5,1.8 -5,2.7 -7.5,2.7 H 636 c -2.5,0 -4.4,-0.9 -5.5,-2.7 -1.1,-1.8 -1.2,-3.9 -0.2,-6.5 l 28.9,-76.4 c 1,-2.5 2.7,-4.7 5.1,-6.5 2.5,-1.8 5,-2.7 7.5,-2.7 h 97 c 6.1,0 10.5,2.2 13.2,6.5 2.7,4.3 2.9,9.5 0.6,15.7 l -24,63.4 0,0 z"
   id="path7"
   inkscape:connector-curvature="0"
   style="fill:#ffffff;fill-rule:evenodd" />
</g>
<path
   class="st1"
   d="M 722.6643,454.27486"
   id="path9"
   inkscape:connector-curvature="0"
   style="fill:#ffffff;stroke:#1f140f;stroke-miterlimit:10" />

</svg>