<?xml version="1.0" encoding="UTF-8" standalone="no"?>
<!-- Created with Inkscape (http://www.inkscape.org/) -->

<svg
   xmlns:dc="http://purl.org/dc/elements/1.1/"
   xmlns:cc="http://creativecommons.org/ns#"
   xmlns:rdf="http://www.w3.org/1999/02/22-rdf-syntax-ns#"
   xmlns:svg="http://www.w3.org/2000/svg"
   xmlns="http://www.w3.org/2000/svg"
   xmlns:sodipodi="http://sodipodi.sourceforge.net/DTD/sodipodi-0.dtd"
   xmlns:inkscape="http://www.inkscape.org/namespaces/inkscape"
   viewBox="0 0 220 70"
   id="svg3372"
   version="1.1"
   inkscape:version="0.48.4 r9939"
   sodipodi:docname="logo_portal_3.svg">
  <defs
     id="defs3374">
    <clipPath
       clipPathUnits="userSpaceOnUse"
       id="clipPath3083">
      <path
         inkscape:connector-curvature="0"
         d="m 0,78.422 206.813,0 L 206.813,0 0,0 0,78.422 z"
         id="path3085" />
    </clipPath>
  </defs>
  <sodipodi:namedview
     id="base"
     pagecolor="#ffffff"
     bordercolor="#666666"
     borderopacity="1.0"
     inkscape:pageopacity="0.0"
     inkscape:pageshadow="2"
     inkscape:zoom="3.959798"
     inkscape:cx="109.45342"
     inkscape:cy="0.51674565"
     inkscape:document-units="px"
     inkscape:current-layer="layer1"
     showgrid="false"
     inkscape:window-width="1440"
     inkscape:window-height="838"
     inkscape:window-x="-8"
     inkscape:window-y="-8"
     inkscape:window-maximized="1" />
  <metadata
     id="metadata3377">
    <rdf:RDF>
      <cc:Work
         rdf:about="">
        <dc:format>image/svg+xml</dc:format>
        <dc:type
           rdf:resource="http://purl.org/dc/dcmitype/StillImage" />
        <dc:title></dc:title>
      </cc:Work>
    </rdf:RDF>
  </metadata>
  <g
     inkscape:label="Camada 1"
     inkscape:groupmode="layer"
     id="layer1"
     transform="translate(0,-982.36218)">
    <g
       transform="translate(721.71991,984.83966)"
       id="g3265">
      <g
         id="g3079"
         transform="matrix(1.25,0,0,-1.25,-734.01021,76.513308)">
        <g
           clip-path="url(#clipPath3083)"
           id="g3081">
          <g
             transform="translate(23.6182,38.2754)"
             id="g3087">
            <path
               id="path3089"
               style="fill:#296580;fill-opacity:1;fill-rule:nonzero;stroke:none"
               d="m 0,0 c 3.889,0 7.564,1.437 7.564,6.549 0,5.157 -3.718,6.593 -7.564,6.593 l -5.748,0 c -0.255,0 -0.422,-0.169 -0.422,-0.422 l 0,-12.298 C -6.17,0.168 -6.003,0 -5.748,0 L 0,0 z m -10.988,-12.257 0,29.288 c 0,0.253 0.17,0.423 0.424,0.423 l 10.986,0 c 6.805,0 11.962,-4.141 11.962,-10.905 0,-6.761 -5.157,-10.861 -11.962,-10.861 l -6.17,0 c -0.255,0 -0.422,-0.169 -0.422,-0.421 l 0,-7.524 c 0,-0.254 -0.17,-0.422 -0.423,-0.422 l -3.971,0 c -0.254,0 -0.424,0.168 -0.424,0.422"
               inkscape:connector-curvature="0" />
          </g>
          <g
             transform="translate(42.6787,36.7529)"
             id="g3091">
            <path
               id="path3093"
               style="fill:#296580;fill-opacity:1;fill-rule:nonzero;stroke:none"
               d="m 0,0 c 0,-4.226 2.578,-7.691 7.016,-7.691 4.439,0 7.057,3.465 7.057,7.691 0,4.227 -2.618,7.651 -7.057,7.651 C 2.578,7.651 0,4.227 0,0 m -4.479,0 c 0,6.213 4.606,11.243 11.495,11.243 6.889,0 11.538,-5.03 11.538,-11.243 0,-6.212 -4.649,-11.284 -11.538,-11.284 -6.889,0 -11.495,5.072 -11.495,11.284"
               inkscape:connector-curvature="0" />
          </g>
          <g
             transform="translate(79.2363,46.5581)"
             id="g3095">
            <path
               id="path3097"
               style="fill:#296580;fill-opacity:1;fill-rule:nonzero;stroke:none"
               d="M 0,0 -0.93,-3.677 C -0.974,-3.931 -1.142,-3.972 -1.351,-3.888 -1.902,-3.55 -2.959,-3 -4.607,-3 -7.184,-3 -10.48,-4.48 -10.48,-9.425 l 0,-11.2 c 0,-0.211 -0.128,-0.337 -0.337,-0.337 l -3.805,0 c -0.211,0 -0.338,0.126 -0.338,0.337 l 0,21.597 c 0,0.211 0.127,0.339 0.338,0.339 l 3.805,0 c 0.209,0 0.337,-0.128 0.337,-0.339 l 0,-2.705 c 0,-0.296 0.21,-0.38 0.421,-0.125 1.523,2.195 3.762,3.295 6.001,3.295 1.903,0 3.296,-0.676 3.849,-1.015 C 0,0.337 0.043,0.169 0,0"
               inkscape:connector-curvature="0" />
          </g>
          <g
             transform="translate(94.1143,26.4399)"
             id="g3099">
            <path
               id="path3101"
               style="fill:#296580;fill-opacity:1;fill-rule:nonzero;stroke:none"
               d="m 0,0 c -0.89,-0.549 -2.538,-0.971 -4.524,-0.971 -4.732,0 -4.987,3.972 -4.987,9.299 l 0,9.17 c 0,0.211 -0.126,0.337 -0.337,0.337 l -2.282,0 c -0.212,0 -0.338,0.129 -0.338,0.339 l 0,2.916 c 0,0.211 0.126,0.339 0.338,0.339 l 2.282,0 c 0.211,0 0.337,0.127 0.337,0.338 l 0,4.732 c 0,0.212 0.085,0.339 0.297,0.381 l 3.847,0.508 c 0.211,0.042 0.338,-0.127 0.338,-0.339 l 0,-5.282 c 0,-0.211 0.127,-0.338 0.338,-0.338 l 4.311,0 c 0.212,0 0.339,-0.128 0.339,-0.339 l 0,-2.916 c 0,-0.21 -0.127,-0.339 -0.339,-0.339 l -4.311,0 c -0.211,0 -0.338,-0.126 -0.338,-0.337 l 0,-9.17 c 0,-3.763 0.169,-5.706 2.282,-5.706 0.803,0 1.351,0.126 1.984,0.339 0.254,0.082 0.383,0.082 0.423,-0.171 L 0.127,0.465 C 0.169,0.254 0.127,0.127 0,0"
               inkscape:connector-curvature="0" />
          </g>
          <g
             transform="translate(110.4707,30.835)"
             id="g3103">
            <path
               id="path3105"
               style="fill:#296580;fill-opacity:1;fill-rule:nonzero;stroke:none"
               d="m 0,0 c 0.169,0.17 0.211,0.254 0.211,0.425 l 0,5.113 c 0,0.211 -0.127,0.337 -0.34,0.337 -4.435,0 -8.79,-1.394 -8.79,-4.691 0,-1.859 1.395,-3.169 3.763,-3.169 1.394,0 3.508,0.506 5.156,1.985 m 4.647,7.144 0,-12.046 c 0,-0.211 -0.125,-0.337 -0.337,-0.337 l -3.761,0 c -0.211,0 -0.338,0.126 -0.338,0.337 l 0,1.944 c 0,0.296 -0.211,0.338 -0.38,0.17 -1.394,-1.437 -4.058,-2.578 -6.636,-2.578 -4.396,0 -6.848,2.662 -6.848,6.171 0,5.748 5.877,7.903 13.524,8.072 0.255,0 0.34,0.126 0.34,0.381 0,3.635 -2.24,4.311 -4.607,4.311 -1.943,0 -4.987,-0.845 -6.424,-1.65 -0.211,-0.127 -0.336,-0.042 -0.421,0.169 l -0.552,2.41 c -0.084,0.209 0,0.294 0.169,0.422 1.735,1.141 5.241,2.241 8.242,2.241 7.692,0 8.029,-5.664 8.029,-10.017"
               inkscape:connector-curvature="0" />
          </g>
          <g
             transform="translate(119.5566,57.4185)"
             id="g3107">
            <path
               id="path3109"
               style="fill:#296580;fill-opacity:1;fill-rule:nonzero;stroke:none"
               d="m 0,0 3.804,0 c 0.212,0 0.339,-0.126 0.339,-0.338 l 0,-31.147 c 0,-0.211 -0.127,-0.337 -0.339,-0.337 l -3.804,0 c -0.211,0 -0.338,0.126 -0.338,0.337 l 0,31.147 C -0.338,-0.126 -0.211,0 0,0"
               inkscape:connector-curvature="0" />
          </g>
          <g
             transform="translate(18.1963,12.6899)"
             id="g3111">
            <path
               id="path3113"
               style="fill:#4296b0;fill-opacity:1;fill-rule:nonzero;stroke:none"
               d="M 0,0 0,-1.174 C 0,-1.26 -0.057,-1.317 -0.142,-1.317 l -5.282,0 c -0.085,0 -0.142,0.057 -0.142,0.143 l 0,9.918 c 0,0.086 0.057,0.142 0.142,0.142 l 1.347,0 c 0.086,0 0.142,-0.056 0.142,-0.142 l 0,-8.458 c 0,-0.086 0.059,-0.143 0.144,-0.143 l 3.649,0 C -0.057,0.143 0,0.086 0,0"
               inkscape:connector-curvature="0" />
          </g>
          <g
             transform="translate(21.5166,11.3726)"
             id="g3115">
            <path
               id="path3117"
               style="fill:#4296b0;fill-opacity:1;fill-rule:nonzero;stroke:none"
               d="m 0,0 -1.345,0 c -0.087,0 -0.143,0.058 -0.143,0.143 l 0,9.918 c 0,0.086 0.056,0.143 0.143,0.143 l 1.345,0 c 0.085,0 0.145,-0.057 0.145,-0.143 l 0,-9.918 C 0.145,0.058 0.085,0 0,0"
               inkscape:connector-curvature="0" />
          </g>
          <g
             transform="translate(30.9189,14.5068)"
             id="g3119">
            <path
               id="path3121"
               style="fill:#4296b0;fill-opacity:1;fill-rule:nonzero;stroke:none"
               d="m 0,0 1.259,-0.172 c 0.1,-0.013 0.086,-0.114 0.057,-0.184 -0.387,-1.504 -2.104,-2.821 -4.136,-2.821 -3.019,0 -4.952,2.403 -4.952,5.166 0,2.748 1.933,5.124 4.952,5.124 2.032,0 3.736,-1.302 4.136,-2.806 C 1.345,4.237 1.372,4.136 1.259,4.122 L 0,3.95 c -0.072,-0.014 -0.158,-0.028 -0.201,0.071 -0.23,0.587 -1.158,1.632 -2.677,1.632 -1.874,0 -3.264,-1.46 -3.264,-3.664 0,-2.217 1.39,-3.706 3.264,-3.706 1.519,0 2.447,1.058 2.677,1.646 C -0.158,0.029 -0.072,0.014 0,0"
               inkscape:connector-curvature="0" />
          </g>
          <g
             transform="translate(40.3906,12.6899)"
             id="g3123">
            <path
               id="path3125"
               style="fill:#4296b0;fill-opacity:1;fill-rule:nonzero;stroke:none"
               d="M 0,0 0,-1.174 C 0,-1.26 -0.057,-1.317 -0.143,-1.317 l -5.869,0 c -0.085,0 -0.142,0.057 -0.142,0.143 l 0,9.918 c 0,0.086 0.057,0.142 0.142,0.142 l 5.725,0 c 0.088,0 0.144,-0.056 0.144,-0.142 l 0,-1.175 c 0,-0.085 -0.056,-0.143 -0.144,-0.143 l -4.092,0 c -0.086,0 -0.143,-0.056 -0.143,-0.143 l 0,-2.732 c 0,-0.087 0.057,-0.145 0.143,-0.145 l 2.949,0 c 0.084,0 0.142,-0.055 0.142,-0.142 l 0,-1.174 c 0,-0.085 -0.058,-0.143 -0.142,-0.143 l -2.949,0 c -0.086,0 -0.143,-0.057 -0.143,-0.143 l 0,-2.518 c 0,-0.086 0.057,-0.143 0.143,-0.143 l 4.236,0 C -0.057,0.143 0,0.086 0,0"
               inkscape:connector-curvature="0" />
          </g>
          <g
             transform="translate(50.0195,11.3726)"
             id="g3127">
            <path
               id="path3129"
               style="fill:#4296b0;fill-opacity:1;fill-rule:nonzero;stroke:none"
               d="M 0,0 -0.9,0 C -0.972,0 -1.029,0.028 -1.072,0.086 L -6.281,6.927 C -6.368,7.056 -6.454,6.983 -6.454,6.855 l 0,-6.712 C -6.454,0.058 -6.511,0 -6.596,0 l -1.345,0 c -0.086,0 -0.144,0.058 -0.144,0.143 l 0,9.918 c 0,0.086 0.058,0.143 0.144,0.143 l 0.9,0 c 0.071,0 0.13,-0.028 0.173,-0.087 L -1.659,3.276 C -1.56,3.163 -1.486,3.219 -1.486,3.35 l 0,6.711 c 0,0.086 0.056,0.143 0.142,0.143 l 1.344,0 c 0.086,0 0.145,-0.057 0.145,-0.143 l 0,-9.918 C 0.145,0.058 0.086,0 0,0"
               inkscape:connector-curvature="0" />
          </g>
          <g
             transform="translate(59.6211,14.5068)"
             id="g3131">
            <path
               id="path3133"
               style="fill:#4296b0;fill-opacity:1;fill-rule:nonzero;stroke:none"
               d="M 0,0 1.259,-0.172 C 1.36,-0.185 1.347,-0.286 1.317,-0.356 0.931,-1.86 -0.786,-3.177 -2.818,-3.177 c -3.02,0 -4.953,2.403 -4.953,5.166 0,2.748 1.933,5.124 4.953,5.124 2.032,0 3.734,-1.302 4.135,-2.806 C 1.347,4.237 1.374,4.136 1.259,4.122 L 0,3.95 c -0.071,-0.014 -0.156,-0.028 -0.199,0.071 -0.23,0.587 -1.158,1.632 -2.677,1.632 -1.875,0 -3.264,-1.46 -3.264,-3.664 0,-2.217 1.389,-3.706 3.264,-3.706 1.519,0 2.447,1.058 2.677,1.646 C -0.156,0.029 -0.071,0.014 0,0"
               inkscape:connector-curvature="0" />
          </g>
          <g
             transform="translate(64.4863,11.3726)"
             id="g3135">
            <path
               id="path3137"
               style="fill:#4296b0;fill-opacity:1;fill-rule:nonzero;stroke:none"
               d="m 0,0 -1.345,0 c -0.087,0 -0.144,0.058 -0.144,0.143 l 0,9.918 c 0,0.086 0.057,0.143 0.144,0.143 l 1.345,0 c 0.086,0 0.142,-0.057 0.142,-0.143 l 0,-9.918 C 0.142,0.058 0.086,0 0,0"
               inkscape:connector-curvature="0" />
          </g>
          <g
             transform="translate(69.3662,14.8647)"
             id="g3139">
            <path
               id="path3141"
               style="fill:#4296b0;fill-opacity:1;fill-rule:nonzero;stroke:none"
               d="m 0,0 3.262,0 c 0.1,0 0.143,0.072 0.1,0.171 L 1.73,4.037 c -0.043,0.099 -0.157,0.099 -0.202,0 L -0.102,0.171 C -0.145,0.072 -0.102,0 0,0 m 1.301,6.711 0.674,0 c 0.072,0 0.143,-0.027 0.171,-0.099 L 6.469,-3.32 c 0.042,-0.101 0,-0.172 -0.101,-0.172 l -1.289,0 c -0.071,0 -0.142,0.028 -0.172,0.1 L 4.106,-1.56 c -0.028,0.071 -0.085,0.101 -0.157,0.101 l -4.636,0 c -0.073,0 -0.144,-0.03 -0.171,-0.101 l -0.803,-1.832 c -0.028,-0.072 -0.086,-0.1 -0.156,-0.1 l -1.303,0 c -0.102,0 -0.144,0.071 -0.102,0.172 l 4.353,9.932 c 0.028,0.072 0.099,0.099 0.17,0.099"
               inkscape:connector-curvature="0" />
          </g>
          <g
             transform="translate(86.5098,21.5762)"
             id="g3143">
            <path
               id="path3145"
               style="fill:#4296b0;fill-opacity:1;fill-rule:nonzero;stroke:none"
               d="m 0,0 0.814,0 c 0.085,0 0.144,-0.057 0.144,-0.143 l 0,-9.918 c 0,-0.085 -0.059,-0.143 -0.144,-0.143 l -1.343,0 c -0.088,0 -0.143,0.058 -0.143,0.143 l 0,6.153 c 0,0.13 -0.101,0.174 -0.173,0.074 l -3.149,-5.052 c -0.057,-0.102 -0.143,-0.102 -0.2,0 l -3.15,5.037 c -0.07,0.101 -0.17,0.071 -0.17,-0.059 l 0,-6.153 c 0,-0.085 -0.057,-0.143 -0.144,-0.143 l -1.345,0 c -0.086,0 -0.143,0.058 -0.143,0.143 l 0,9.918 c 0,0.086 0.057,0.143 0.143,0.143 l 0.816,0 c 0.071,0 0.142,-0.014 0.186,-0.086 l 3.807,-6.167 c 0.057,-0.086 0.143,-0.086 0.2,0 l 3.807,6.167 C -0.145,-0.014 -0.073,0 0,0"
               inkscape:connector-curvature="0" />
          </g>
          <g
             transform="translate(95.7363,12.6899)"
             id="g3147">
            <path
               id="path3149"
               style="fill:#4296b0;fill-opacity:1;fill-rule:nonzero;stroke:none"
               d="M 0,0 0,-1.174 C 0,-1.26 -0.057,-1.317 -0.143,-1.317 l -5.868,0 c -0.086,0 -0.142,0.057 -0.142,0.143 l 0,9.918 c 0,0.086 0.056,0.142 0.142,0.142 l 5.725,0 c 0.086,0 0.143,-0.056 0.143,-0.142 l 0,-1.175 c 0,-0.085 -0.057,-0.143 -0.143,-0.143 l -4.092,0 c -0.086,0 -0.143,-0.056 -0.143,-0.143 l 0,-2.732 c 0,-0.087 0.057,-0.145 0.143,-0.145 l 2.948,0 c 0.086,0 0.142,-0.055 0.142,-0.142 l 0,-1.174 c 0,-0.085 -0.056,-0.143 -0.142,-0.143 l -2.948,0 c -0.086,0 -0.143,-0.057 -0.143,-0.143 l 0,-2.518 c 0,-0.086 0.057,-0.143 0.143,-0.143 l 4.235,0 C -0.057,0.143 0,0.086 0,0"
               inkscape:connector-curvature="0" />
          </g>
          <g
             transform="translate(105.3691,11.3726)"
             id="g3151">
            <path
               id="path3153"
               style="fill:#4296b0;fill-opacity:1;fill-rule:nonzero;stroke:none"
               d="m 0,0 -0.905,0 c -0.071,0 -0.127,0.028 -0.17,0.086 l -5.21,6.841 C -6.371,7.056 -6.456,6.983 -6.456,6.855 l 0,-6.712 C -6.456,0.058 -6.514,0 -6.6,0 l -1.345,0 c -0.086,0 -0.143,0.058 -0.143,0.143 l 0,9.918 c 0,0.086 0.057,0.143 0.143,0.143 l 0.902,0 c 0.07,0 0.13,-0.028 0.172,-0.087 l 5.209,-6.841 c 0.1,-0.113 0.173,-0.057 0.173,0.074 l 0,6.711 c 0,0.086 0.056,0.143 0.142,0.143 l 1.347,0 c 0.084,0 0.142,-0.057 0.142,-0.143 l 0,-9.918 C 0.142,0.058 0.084,0 0,0"
               inkscape:connector-curvature="0" />
          </g>
          <g
             transform="translate(114.2529,21.4336)"
             id="g3155">
            <path
               id="path3157"
               style="fill:#4296b0;fill-opacity:1;fill-rule:nonzero;stroke:none"
               d="m 0,0 0,-1.174 c 0,-0.085 -0.06,-0.143 -0.143,-0.143 l -2.505,0 c -0.085,0 -0.143,-0.057 -0.143,-0.143 l 0,-8.458 c 0,-0.085 -0.057,-0.143 -0.144,-0.143 l -1.331,0 c -0.085,0 -0.143,0.058 -0.143,0.143 l 0,8.458 c 0,0.086 -0.057,0.143 -0.143,0.143 l -2.518,0 c -0.085,0 -0.144,0.058 -0.144,0.143 l 0,1.174 c 0,0.086 0.059,0.143 0.144,0.143 l 6.927,0 C -0.06,0.143 0,0.086 0,0"
               inkscape:connector-curvature="0" />
          </g>
          <g
             transform="translate(116.6279,16.4814)"
             id="g3159">
            <path
               id="path3161"
               style="fill:#4296b0;fill-opacity:1;fill-rule:nonzero;stroke:none"
               d="M 0,0 C 0,-2.303 1.487,-3.691 3.405,-3.691 5.31,-3.691 6.797,-2.303 6.797,0 6.797,2.291 5.31,3.678 3.405,3.678 1.487,3.678 0,2.291 0,0 m 8.429,0 c 0,-2.947 -2.075,-5.152 -5.024,-5.152 -2.948,0 -5.037,2.205 -5.037,5.152 0,2.948 2.089,5.139 5.037,5.139 2.949,0 5.024,-2.191 5.024,-5.139"
               inkscape:connector-curvature="0" />
          </g>
          <g
             transform="translate(174.8271,38.0674)"
             id="g3163">
            <path
               id="path3165"
               style="fill:#296580;fill-opacity:1;fill-rule:nonzero;stroke:none"
               d="m 0,0 c 0,-11.256 -9.122,-20.382 -20.38,-20.382 -11.257,0 -20.382,9.126 -20.382,20.382 0,11.258 9.125,20.384 20.382,20.384 2.507,0 4.911,-0.457 7.133,-1.286 0,0.02 10e-4,0.04 10e-4,0.061 -2.946,1.336 -6.214,2.086 -9.661,2.086 -12.934,0 -23.422,-10.488 -23.422,-23.424 0,-12.936 10.488,-23.423 23.422,-23.423 12.938,0 23.424,10.487 23.424,23.423 0,2.05 -0.264,4.038 -0.758,5.933 C -0.28,3.76 -0.315,3.766 -0.352,3.772 -0.123,2.547 0,1.29 0,0"
               inkscape:connector-curvature="0" />
          </g>
          <g
             transform="translate(172.2295,45.5786)"
             id="g3167">
            <path
               id="path3169"
               style="fill:#4296b0;fill-opacity:1;fill-rule:nonzero;stroke:none"
               d="M 0,0 C 0,0.007 -0.001,0.017 -0.004,0.031 -0.006,0.059 -0.01,0.099 -0.016,0.15 -0.026,0.254 -0.042,0.4 -0.062,0.572 -0.103,0.916 -0.164,1.365 -0.245,1.779 -0.3,2.055 -0.363,2.316 -0.432,2.516 -0.471,2.629 -0.513,2.724 -0.553,2.786 -0.673,2.986 -0.802,3.138 -0.944,3.264 -1.09,3.39 -1.249,3.49 -1.437,3.579 -1.812,3.758 -2.289,3.89 -2.912,4.094 -3.61,4.322 -4.101,4.62 -4.442,4.944 -4.786,5.268 -4.974,5.62 -5.065,5.942 -5.098,6.05 -5.119,6.155 -5.131,6.254 -5.175,5.635 -5.03,4.911 -4.947,4.154 l 2.433,-14.673 c 0.11,-0.606 0.372,-1.644 1.995,-1.352 0.607,0.109 1.112,0.991 1.002,1.598 L 0.001,-0.011 c 0,0 0,0.004 -0.001,0.011"
               inkscape:connector-curvature="0" />
          </g>
          <g
             transform="translate(182.9072,42.6904)"
             id="g3171">
            <path
               id="path3173"
               style="fill:#4296b0;fill-opacity:1;fill-rule:nonzero;stroke:none"
               d="m 0,0 -13.188,10.26 c -0.515,0.504 -1.253,0.559 -1.606,0.405 -0.379,-0.178 -0.587,-0.457 -0.692,-0.728 -0.125,-0.318 -0.234,-0.721 0.169,-1.291 0.374,-0.529 0.99,-1.042 1.832,-1.349 0.34,-0.123 0.65,-0.204 0.923,-0.297 0.274,-0.093 0.521,-0.188 0.743,-0.31 0.15,-0.082 0.287,-0.174 0.415,-0.287 0.172,-0.149 0.324,-0.331 0.46,-0.556 0.056,-0.095 0.105,-0.207 0.149,-0.335 0.044,-0.129 0.084,-0.272 0.12,-0.425 0.073,-0.304 0.134,-0.648 0.184,-0.971 0.096,-0.644 0.145,-1.207 0.145,-1.21 l 0.069,-0.014 8.542,-5.386 C -0.106,-3.35 1.491,-1.517 0,0"
               inkscape:connector-curvature="0" />
          </g>
        </g>
      </g>
    </g>
  </g>
</svg>
