<?xml version="1.0" encoding="UTF-8" standalone="no"?>
<!-- Created with Inkscape (http://www.inkscape.org/) -->

<svg
   xmlns:dc="http://purl.org/dc/elements/1.1/"
   xmlns:cc="http://creativecommons.org/ns#"
   xmlns:rdf="http://www.w3.org/1999/02/22-rdf-syntax-ns#"
   xmlns:svg="http://www.w3.org/2000/svg"
   xmlns="http://www.w3.org/2000/svg"
   xmlns:sodipodi="http://sodipodi.sourceforge.net/DTD/sodipodi-0.dtd"
   xmlns:inkscape="http://www.inkscape.org/namespaces/inkscape"
   id="svg3349"
   version="1.1"
   inkscape:version="0.48.4 r9939"
   viewBox="0 0 725.59 446.2275"
   xml:space="preserve"
   sodipodi:docname="imagens para exportar.ai"><metadata
     id="metadata3355"><rdf:RDF><cc:Work
         rdf:about=""><dc:format>image/svg+xml</dc:format><dc:type
           rdf:resource="http://purl.org/dc/dcmitype/StillImage" /><dc:title></dc:title></cc:Work></rdf:RDF></metadata><defs
     id="defs3353"><clipPath
       clipPathUnits="userSpaceOnUse"
       id="clipPath3363"><path
         d="m 0,356.982 580.472,0 L 580.472,0 0,0 0,356.982 z"
         id="path3365" /></clipPath></defs><sodipodi:namedview
     pagecolor="#ffffff"
     bordercolor="#666666"
     borderopacity="1"
     objecttolerance="10"
     gridtolerance="10"
     guidetolerance="10"
     inkscape:pageopacity="0"
     inkscape:pageshadow="2"
     inkscape:window-width="1440"
     inkscape:window-height="838"
     id="namedview3351"
     showgrid="false"
     inkscape:zoom="0.51682077"
     inkscape:cx="362.79501"
     inkscape:cy="223.11375"
     inkscape:window-x="-8"
     inkscape:window-y="-8"
     inkscape:window-maximized="1"
     inkscape:current-layer="g3357" /><g
     id="g3357"
     inkscape:groupmode="layer"
     inkscape:label="imagens para exportar"
     transform="matrix(1.25,0,0,-1.25,0,446.2275)"><g
       id="g3359"><g
         id="g3361"
         clip-path="url(#clipPath3363)"><g
           id="g3367"
           transform="translate(64.2441,191.6221)"><path
             d="M 0,0 C 12.02,0 23.381,4.44 23.381,20.243 23.381,36.18 11.887,40.618 0,40.618 l -17.766,0 c -0.791,0 -1.304,-0.52 -1.304,-1.304 l 0,-38.01 C -19.07,0.52 -18.557,0 -17.766,0 L 0,0 z m -33.963,-37.885 0,90.525 c 0,0.782 0.525,1.306 1.311,1.306 l 33.957,0 c 21.031,0 36.968,-12.798 36.968,-33.703 0,-20.899 -15.937,-33.572 -36.968,-33.572 l -19.071,0 c -0.791,0 -1.304,-0.522 -1.304,-1.301 l 0,-23.255 c 0,-0.783 -0.526,-1.303 -1.309,-1.303 l -12.273,0 c -0.786,0 -1.311,0.52 -1.311,1.303"
             style="fill:#ffffff;fill-opacity:1;fill-rule:nonzero;stroke:none"
             id="path3369" /></g><g
           id="g3371"
           transform="translate(123.1563,186.9165)"><path
             d="m 0,0 c 0,-13.06 7.969,-23.772 21.684,-23.772 13.722,0 21.81,10.712 21.81,23.772 0,13.063 -8.088,23.647 -21.81,23.647 C 7.969,23.647 0,13.063 0,0 m -13.848,0 c 0,19.205 14.241,34.749 35.532,34.749 21.293,0 35.66,-15.544 35.66,-34.749 0,-19.201 -14.367,-34.877 -35.66,-34.877 -21.291,0 -35.532,15.676 -35.532,34.877"
             style="fill:#ffffff;fill-opacity:1;fill-rule:nonzero;stroke:none"
             id="path3373" /></g><g
           id="g3375"
           transform="translate(236.1465,217.2222)"><path
             d="m 0,0 -2.875,-11.365 c -0.133,-0.785 -0.65,-0.912 -1.297,-0.651 -1.709,1.043 -4.974,2.745 -10.07,2.745 -7.961,0 -18.153,-4.577 -18.153,-19.859 l 0,-34.618 c 0,-0.651 -0.39,-1.041 -1.037,-1.041 l -11.759,0 c -0.653,0 -1.045,0.39 -1.045,1.041 l 0,66.753 c 0,0.652 0.392,1.046 1.045,1.046 l 11.759,0 c 0.647,0 1.037,-0.394 1.037,-1.046 l 0,-8.362 c 0,-0.915 0.653,-1.173 1.305,-0.387 4.709,6.787 11.627,10.187 18.551,10.187 5.879,0 10.184,-2.091 11.893,-3.137 C 0,1.043 0.133,0.522 0,0"
             style="fill:#ffffff;fill-opacity:1;fill-rule:nonzero;stroke:none"
             id="path3377" /></g><g
           id="g3379"
           transform="translate(282.1328,155.0415)"><path
             d="m 0,0 c -2.752,-1.696 -7.848,-3.002 -13.986,-3.002 -14.621,0 -15.412,12.277 -15.412,28.741 l 0,28.342 c 0,0.653 -0.387,1.044 -1.039,1.044 l -7.057,0 c -0.651,0 -1.043,0.397 -1.043,1.048 l 0,9.013 c 0,0.651 0.392,1.045 1.043,1.045 l 7.057,0 c 0.652,0 1.039,0.393 1.039,1.045 l 0,14.627 c 0,0.655 0.265,1.049 0.918,1.179 l 11.892,1.567 c 0.65,0.13 1.043,-0.392 1.043,-1.045 l 0,-16.328 c 0,-0.652 0.393,-1.045 1.045,-1.045 l 13.322,0 c 0.658,0 1.051,-0.394 1.051,-1.045 l 0,-9.013 c 0,-0.651 -0.393,-1.048 -1.051,-1.048 l -13.322,0 c -0.652,0 -1.045,-0.391 -1.045,-1.044 l 0,-28.342 c 0,-11.628 0.52,-17.636 7.051,-17.636 2.482,0 4.178,0.391 6.135,1.048 0.783,0.256 1.181,0.256 1.308,-0.528 L 0.393,1.437 C 0.52,0.785 0.393,0.394 0,0"
             style="fill:#ffffff;fill-opacity:1;fill-rule:nonzero;stroke:none"
             id="path3381" /></g><g
           id="g3383"
           transform="translate(332.6836,168.6255)"><path
             d="m 0,0 c 0.525,0.527 0.652,0.785 0.652,1.313 l 0,15.804 c 0,0.652 -0.392,1.043 -1.05,1.043 -13.709,0 -27.164,-4.31 -27.164,-14.5 0,-5.746 4.31,-9.795 11.626,-9.795 4.311,0 10.842,1.565 15.936,6.135 m 14.369,22.081 0,-37.232 c 0,-0.652 -0.387,-1.041 -1.045,-1.041 l -11.627,0 c -0.652,0 -1.045,0.389 -1.045,1.041 l 0,6.01 c 0,0.914 -0.652,1.044 -1.17,0.523 -4.31,-4.441 -12.545,-7.968 -20.513,-7.968 -13.588,0 -21.164,8.23 -21.164,19.073 0,17.766 18.164,24.428 41.797,24.95 0.791,0 1.05,0.391 1.05,1.177 0,11.234 -6.923,13.324 -14.24,13.324 -6,0 -15.412,-2.612 -19.855,-5.099 -0.651,-0.393 -1.037,-0.13 -1.297,0.524 l -1.709,7.446 c -0.26,0.648 0,0.911 0.525,1.305 5.362,3.526 16.197,6.926 25.475,6.926 23.773,0 24.818,-17.506 24.818,-30.959"
             style="fill:#ffffff;fill-opacity:1;fill-rule:nonzero;stroke:none"
             id="path3385" /></g><g
           id="g3387"
           transform="translate(360.7676,250.7896)"><path
             d="m 0,0 11.76,0 c 0.65,0 1.043,-0.391 1.043,-1.044 l 0,-96.271 c 0,-0.652 -0.393,-1.041 -1.043,-1.041 l -11.76,0 c -0.652,0 -1.045,0.389 -1.045,1.041 l 0,96.271 C -1.045,-0.391 -0.652,0 0,0"
             style="fill:#ffffff;fill-opacity:1;fill-rule:nonzero;stroke:none"
             id="path3389" /></g><g
           id="g3391"
           transform="translate(47.4863,112.543)"><path
             d="m 0,0 0,-3.629 c 0,-0.265 -0.174,-0.443 -0.439,-0.443 l -16.325,0 c -0.265,0 -0.441,0.178 -0.441,0.443 l 0,30.654 c 0,0.266 0.176,0.44 0.441,0.44 l 4.16,0 c 0.266,0 0.44,-0.174 0.44,-0.44 l 0,-26.141 c 0,-0.267 0.182,-0.442 0.447,-0.442 l 11.278,0 C -0.174,0.442 0,0.266 0,0"
             style="fill:#ffffff;fill-opacity:1;fill-rule:nonzero;stroke:none"
             id="path3393" /></g><g
           id="g3395"
           transform="translate(57.748,108.4712)"><path
             d="M 0,0 -4.158,0 C -4.424,0 -4.6,0.178 -4.6,0.442 l 0,30.655 c 0,0.265 0.176,0.44 0.442,0.44 l 4.158,0 c 0.26,0 0.447,-0.175 0.447,-0.44 l 0,-30.655 C 0.447,0.178 0.26,0 0,0"
             style="fill:#ffffff;fill-opacity:1;fill-rule:nonzero;stroke:none"
             id="path3397" /></g><g
           id="g3399"
           transform="translate(86.8105,118.1587)"><path
             d="M 0,0 3.887,-0.531 C 4.201,-0.572 4.152,-0.884 4.068,-1.102 2.867,-5.749 -2.439,-9.82 -8.719,-9.82 c -9.332,0 -15.308,7.428 -15.308,15.968 0,8.492 5.976,15.837 15.308,15.837 6.28,0 11.549,-4.025 12.787,-8.672 0.084,-0.218 0.168,-0.53 -0.181,-0.574 L 0,12.208 c -0.225,-0.042 -0.49,-0.086 -0.623,0.22 -0.711,1.816 -3.58,5.044 -8.275,5.044 -5.79,0 -10.088,-4.513 -10.088,-11.324 0,-6.852 4.298,-11.454 10.088,-11.454 4.695,0 7.564,3.27 8.275,5.087 C -0.49,0.089 -0.225,0.043 0,0"
             style="fill:#ffffff;fill-opacity:1;fill-rule:nonzero;stroke:none"
             id="path3401" /></g><g
           id="g3403"
           transform="translate(116.082,112.543)"><path
             d="m 0,0 0,-3.629 c 0,-0.265 -0.176,-0.443 -0.441,-0.443 l -18.141,0 c -0.26,0 -0.439,0.178 -0.439,0.443 l 0,30.654 c 0,0.266 0.179,0.44 0.439,0.44 l 17.693,0 c 0.274,0 0.448,-0.174 0.448,-0.44 l 0,-3.63 c 0,-0.262 -0.174,-0.442 -0.448,-0.442 l -12.646,0 c -0.266,0 -0.44,-0.174 -0.44,-0.442 l 0,-8.444 c 0,-0.269 0.174,-0.448 0.44,-0.448 l 9.115,0 c 0.26,0 0.441,-0.171 0.441,-0.441 l 0,-3.626 c 0,-0.263 -0.181,-0.443 -0.441,-0.443 l -9.115,0 c -0.266,0 -0.44,-0.176 -0.44,-0.442 l 0,-7.783 c 0,-0.267 0.174,-0.442 0.44,-0.442 l 13.094,0 C -0.176,0.442 0,0.266 0,0"
             style="fill:#ffffff;fill-opacity:1;fill-rule:nonzero;stroke:none"
             id="path3405" /></g><g
           id="g3407"
           transform="translate(145.8418,108.4712)"><path
             d="M 0,0 -2.781,0 C -3,0 -3.18,0.087 -3.313,0.266 l -16.101,21.145 c -0.266,0.398 -0.531,0.173 -0.531,-0.224 l 0,-20.745 C -19.945,0.178 -20.119,0 -20.385,0 l -4.16,0 c -0.266,0 -0.439,0.178 -0.439,0.442 l 0,30.655 c 0,0.265 0.173,0.44 0.439,0.44 l 2.783,0 c 0.223,0 0.405,-0.086 0.537,-0.267 l 16.1,-21.144 c 0.309,-0.35 0.531,-0.176 0.531,0.228 l 0,20.743 c 0,0.265 0.176,0.44 0.442,0.44 l 4.152,0 c 0.266,0 0.447,-0.175 0.447,-0.44 l 0,-30.655 C 0.447,0.178 0.266,0 0,0"
             style="fill:#ffffff;fill-opacity:1;fill-rule:nonzero;stroke:none"
             id="path3409" /></g><g
           id="g3411"
           transform="translate(175.5195,118.1587)"><path
             d="M 0,0 3.893,-0.531 C 4.207,-0.572 4.164,-0.884 4.074,-1.102 2.879,-5.749 -2.428,-9.82 -8.711,-9.82 c -9.334,0 -15.303,7.428 -15.303,15.968 0,8.492 5.969,15.837 15.303,15.837 6.283,0 11.541,-4.025 12.785,-8.672 0.09,-0.218 0.176,-0.53 -0.181,-0.574 L 0,12.208 c -0.219,-0.042 -0.482,-0.086 -0.615,0.22 -0.707,1.816 -3.58,5.044 -8.272,5.044 -5.795,0 -10.088,-4.513 -10.088,-11.324 0,-6.852 4.293,-11.454 10.088,-11.454 4.692,0 7.565,3.27 8.272,5.087 C -0.482,0.089 -0.219,0.043 0,0"
             style="fill:#ffffff;fill-opacity:1;fill-rule:nonzero;stroke:none"
             id="path3413" /></g><g
           id="g3415"
           transform="translate(190.5566,108.4712)"><path
             d="M 0,0 -4.154,0 C -4.426,0 -4.6,0.178 -4.6,0.442 l 0,30.655 c 0,0.265 0.174,0.44 0.446,0.44 l 4.154,0 c 0.266,0 0.441,-0.175 0.441,-0.44 l 0,-30.655 C 0.441,0.178 0.266,0 0,0"
             style="fill:#ffffff;fill-opacity:1;fill-rule:nonzero;stroke:none"
             id="path3417" /></g><g
           id="g3419"
           transform="translate(205.6426,119.2646)"><path
             d="m 0,0 10.08,0 c 0.309,0 0.441,0.222 0.309,0.528 L 5.348,12.477 c -0.133,0.306 -0.489,0.306 -0.627,0 L -0.314,0.528 C -0.447,0.222 -0.314,0 0,0 m 4.02,20.744 2.084,0 c 0.222,0 0.439,-0.086 0.525,-0.307 l 13.365,-30.698 c 0.125,-0.312 0,-0.532 -0.314,-0.532 l -3.985,0 c -0.216,0 -0.435,0.087 -0.531,0.311 l -2.475,5.66 c -0.085,0.22 -0.265,0.311 -0.484,0.311 l -14.33,0 c -0.223,0 -0.447,-0.091 -0.531,-0.311 l -2.481,-5.66 c -0.086,-0.224 -0.265,-0.311 -0.484,-0.311 l -4.025,0 c -0.315,0 -0.442,0.22 -0.315,0.532 L 3.494,20.437 c 0.086,0.221 0.309,0.307 0.526,0.307"
             style="fill:#ffffff;fill-opacity:1;fill-rule:nonzero;stroke:none"
             id="path3421" /></g><g
           id="g3423"
           transform="translate(258.627,140.0083)"><path
             d="m 0,0 2.516,0 c 0.265,0 0.447,-0.175 0.447,-0.44 l 0,-30.655 c 0,-0.264 -0.182,-0.442 -0.447,-0.442 l -4.153,0 c -0.271,0 -0.441,0.178 -0.441,0.442 l 0,19.017 c 0,0.402 -0.313,0.536 -0.531,0.226 l -9.737,-15.613 c -0.175,-0.314 -0.441,-0.314 -0.615,0 l -9.738,15.568 c -0.217,0.313 -0.526,0.221 -0.526,-0.181 l 0,-19.017 c 0,-0.264 -0.173,-0.442 -0.445,-0.442 l -4.154,0 c -0.266,0 -0.44,0.178 -0.44,0.442 l 0,30.655 c 0,0.265 0.174,0.44 0.44,0.44 l 2.523,0 c 0.217,0 0.436,-0.043 0.574,-0.267 l 11.766,-19.061 c 0.174,-0.264 0.44,-0.264 0.615,0 L -0.574,-0.267 C -0.447,-0.043 -0.225,0 0,0"
             style="fill:#ffffff;fill-opacity:1;fill-rule:nonzero;stroke:none"
             id="path3425" /></g><g
           id="g3427"
           transform="translate(287.1426,112.543)"><path
             d="m 0,0 0,-3.629 c 0,-0.265 -0.174,-0.443 -0.439,-0.443 l -18.135,0 c -0.266,0 -0.442,0.178 -0.442,0.443 l 0,30.654 c 0,0.266 0.176,0.44 0.442,0.44 l 17.693,0 c 0.266,0 0.442,-0.174 0.442,-0.44 l 0,-3.63 c 0,-0.262 -0.176,-0.442 -0.442,-0.442 l -12.646,0 c -0.266,0 -0.448,-0.174 -0.448,-0.442 l 0,-8.444 c 0,-0.269 0.182,-0.448 0.448,-0.448 l 9.109,0 c 0.266,0 0.441,-0.171 0.441,-0.441 l 0,-3.626 c 0,-0.263 -0.175,-0.443 -0.441,-0.443 l -9.109,0 c -0.266,0 -0.448,-0.176 -0.448,-0.442 l 0,-7.783 c 0,-0.267 0.182,-0.442 0.448,-0.442 l 13.088,0 C -0.174,0.442 0,0.266 0,0"
             style="fill:#ffffff;fill-opacity:1;fill-rule:nonzero;stroke:none"
             id="path3429" /></g><g
           id="g3431"
           transform="translate(316.916,108.4712)"><path
             d="M 0,0 -2.795,0 C -3.012,0 -3.188,0.087 -3.32,0.266 l -16.106,21.145 c -0.265,0.398 -0.525,0.173 -0.525,-0.224 l 0,-20.745 C -19.951,0.178 -20.133,0 -20.398,0 l -4.159,0 c -0.265,0 -0.441,0.178 -0.441,0.442 l 0,30.655 c 0,0.265 0.176,0.44 0.441,0.44 l 2.789,0 c 0.217,0 0.405,-0.086 0.532,-0.267 L -5.137,10.126 C -4.828,9.776 -4.6,9.95 -4.6,10.354 l 0,20.743 c 0,0.265 0.176,0.44 0.442,0.44 l 4.158,0 c 0.26,0 0.441,-0.175 0.441,-0.44 l 0,-30.655 C 0.441,0.178 0.26,0 0,0"
             style="fill:#ffffff;fill-opacity:1;fill-rule:nonzero;stroke:none"
             id="path3433" /></g><g
           id="g3435"
           transform="translate(344.377,139.5679)"><path
             d="m 0,0 0,-3.63 c 0,-0.262 -0.187,-0.442 -0.439,-0.442 l -7.747,0 c -0.265,0 -0.439,-0.174 -0.439,-0.442 l 0,-26.14 c 0,-0.264 -0.176,-0.443 -0.447,-0.443 l -4.112,0 c -0.265,0 -0.447,0.179 -0.447,0.443 l 0,26.14 c 0,0.268 -0.174,0.442 -0.439,0.442 l -7.782,0 c -0.265,0 -0.447,0.18 -0.447,0.442 l 0,3.63 c 0,0.266 0.182,0.44 0.447,0.44 l 21.413,0 C -0.187,0.44 0,0.266 0,0"
             style="fill:#ffffff;fill-opacity:1;fill-rule:nonzero;stroke:none"
             id="path3437" /></g><g
           id="g3439"
           transform="translate(351.7187,124.2617)"><path
             d="m 0,0 c 0,-7.119 4.594,-11.409 10.521,-11.409 5.885,0 10.487,4.29 10.487,11.409 0,7.08 -4.602,11.369 -10.487,11.369 C 4.594,11.369 0,7.08 0,0 m 26.047,0 c 0,-9.108 -6.41,-15.923 -15.526,-15.923 -9.109,0 -15.568,6.815 -15.568,15.923 0,9.112 6.459,15.882 15.568,15.882 9.116,0 15.526,-6.77 15.526,-15.882"
             style="fill:#ffffff;fill-opacity:1;fill-rule:nonzero;stroke:none"
             id="path3441" /></g><g
           id="g3443"
           transform="translate(531.5996,190.9795)"><path
             d="m 0,0 c 0,-34.791 -28.197,-62.996 -62.992,-62.996 -34.791,0 -62.994,28.205 -62.994,62.996 0,34.795 28.203,63.002 62.994,63.002 7.75,0 15.181,-1.413 22.045,-3.975 0,0.063 0.006,0.123 0.006,0.188 -9.11,4.129 -19.209,6.449 -29.864,6.449 -39.974,0 -72.392,-32.415 -72.392,-72.398 0,-39.984 32.418,-72.397 72.392,-72.397 39.994,0 72.399,32.413 72.399,72.397 0,6.334 -0.815,12.479 -2.342,18.337 -0.121,0.019 -0.231,0.037 -0.338,0.057 C -0.381,7.873 0,3.985 0,0"
             style="fill:#ffffff;fill-opacity:1;fill-rule:nonzero;stroke:none"
             id="path3445" /></g><g
           id="g3447"
           transform="translate(523.5703,214.1948)"><path
             d="m 0,0 c 0,0.021 -0.006,0.053 -0.012,0.097 -0.006,0.086 -0.017,0.21 -0.035,0.368 -0.037,0.32 -0.086,0.771 -0.146,1.303 -0.125,1.064 -0.313,2.452 -0.567,3.73 -0.17,0.854 -0.363,1.66 -0.574,2.277 -0.121,0.35 -0.254,0.645 -0.373,0.836 -0.375,0.618 -0.773,1.089 -1.215,1.478 -0.445,0.388 -0.941,0.697 -1.519,0.972 -1.161,0.554 -2.633,0.961 -4.559,1.592 -2.162,0.705 -3.676,1.625 -4.732,2.629 -1.063,1.001 -1.643,2.089 -1.926,3.085 -0.098,0.333 -0.164,0.658 -0.199,0.964 -0.139,-1.915 0.306,-4.153 0.566,-6.491 l 7.523,-45.352 c 0.338,-1.874 1.147,-5.08 6.163,-4.179 1.876,0.337 3.435,3.062 3.097,4.94 L 0,-0.035 0,0 z"
             style="fill:#ffffff;fill-opacity:1;fill-rule:nonzero;stroke:none"
             id="path3449" /></g><g
           id="g3451"
           transform="translate(556.5742,205.2681)"><path
             d="m 0,0 -40.76,31.712 c -1.594,1.557 -3.877,1.728 -4.969,1.251 -1.171,-0.55 -1.81,-1.411 -2.136,-2.251 -0.387,-0.981 -0.725,-2.226 0.519,-3.987 1.158,-1.636 3.061,-3.223 5.662,-4.17 1.057,-0.382 2.01,-0.631 2.856,-0.918 0.844,-0.288 1.611,-0.582 2.293,-0.96 0.465,-0.252 0.889,-0.537 1.287,-0.885 0.531,-0.462 1.002,-1.024 1.418,-1.719 0.176,-0.295 0.326,-0.64 0.465,-1.036 0.133,-0.398 0.26,-0.842 0.367,-1.314 0.23,-0.94 0.418,-2.003 0.568,-3 0.303,-1.993 0.453,-3.733 0.453,-3.742 L -31.766,8.938 -5.367,-7.707 C -0.332,-10.353 4.605,-4.689 0,0"
             style="fill:#ffffff;fill-opacity:1;fill-rule:nonzero;stroke:none"
             id="path3453" /></g></g></g></g></svg>