<?xml version="1.0" encoding="UTF-8" standalone="no"?>
<!-- Created with Inkscape (http://www.inkscape.org/) -->

<svg
   xmlns:dc="http://purl.org/dc/elements/1.1/"
   xmlns:cc="http://creativecommons.org/ns#"
   xmlns:rdf="http://www.w3.org/1999/02/22-rdf-syntax-ns#"
   xmlns:svg="http://www.w3.org/2000/svg"
   xmlns="http://www.w3.org/2000/svg"
   xmlns:sodipodi="http://sodipodi.sourceforge.net/DTD/sodipodi-0.dtd"
   xmlns:inkscape="http://www.inkscape.org/namespaces/inkscape"
   id="svg2985"
   version="1.1"
   inkscape:version="0.48.4 r9939"
   viewBox="0 0 157.42 103.75"
   xml:space="preserve"
   sodipodi:docname="imagens para exportar.ai"><metadata
     id="metadata2991"><rdf:RDF><cc:Work
         rdf:about=""><dc:format>image/svg+xml</dc:format><dc:type
           rdf:resource="http://purl.org/dc/dcmitype/StillImage" /><dc:title></dc:title></cc:Work></rdf:RDF></metadata><defs
     id="defs2989"><clipPath
       clipPathUnits="userSpaceOnUse"
       id="clipPath2999"><path
         d="m 0,83 125.936,0 0,-83 L 0,0 0,83 z"
         id="path3001" /></clipPath></defs><sodipodi:namedview
     pagecolor="#ffffff"
     bordercolor="#666666"
     borderopacity="1"
     objecttolerance="10"
     gridtolerance="10"
     guidetolerance="10"
     inkscape:pageopacity="0"
     inkscape:pageshadow="2"
     inkscape:window-width="1440"
     inkscape:window-height="838"
     id="namedview2987"
     showgrid="false"
     inkscape:zoom="6.2746988"
     inkscape:cx="78.709999"
     inkscape:cy="51.875"
     inkscape:window-x="-8"
     inkscape:window-y="-8"
     inkscape:window-maximized="1"
     inkscape:current-layer="g2993" /><g
     id="g2993"
     inkscape:groupmode="layer"
     inkscape:label="imagens para exportar"
     transform="matrix(1.25,0,0,-1.25,0,103.75)"><g
       id="g2995"><g
         id="g2997"
         clip-path="url(#clipPath2999)"><g
           id="g3003"
           transform="translate(21.7744,46.4785)"><path
             d="M 0,0 C 0,0.555 -0.191,1 -0.569,1.338 -0.946,1.672 -1.61,1.99 -2.56,2.287 c -1.627,0.5 -2.863,1.094 -3.704,1.772 -0.843,0.677 -1.265,1.607 -1.265,2.781 0,1.181 0.475,2.148 1.423,2.894 0.951,0.75 2.161,1.123 3.633,1.123 1.564,0 2.821,-0.4 3.773,-1.205 0.953,-0.806 1.412,-1.861 1.383,-3.17 l -0.021,-0.058 -2.741,0 c 0,0.719 -0.212,1.273 -0.64,1.658 -0.427,0.387 -1.023,0.58 -1.792,0.58 C -3.21,8.662 -3.749,8.49 -4.13,8.146 -4.51,7.803 -4.7,7.363 -4.7,6.83 -4.7,6.342 -4.493,5.941 -4.081,5.629 -3.666,5.314 -2.955,4.982 -1.94,4.631 -0.391,4.184 0.792,3.598 1.608,2.877 2.421,2.154 2.827,1.201 2.827,0.021 c 0,-1.234 -0.473,-2.207 -1.415,-2.919 -0.942,-0.715 -2.188,-1.069 -3.738,-1.069 -1.519,0 -2.822,0.385 -3.909,1.156 -1.089,0.774 -1.619,1.924 -1.585,3.457 l 0.02,0.057 2.742,0 c 0,-0.849 0.245,-1.478 0.736,-1.879 0.49,-0.402 1.155,-0.605 1.996,-0.605 0.755,0 1.331,0.162 1.729,0.486 C -0.201,-0.975 0,-0.541 0,0"
             style="fill:#194151;fill-opacity:1;fill-rule:nonzero;stroke:none"
             id="path3005" /></g><g
           id="g3007"
           transform="translate(30.0645,44.6484)"><path
             d="m 0,0 c 0.492,0 0.932,0.123 1.317,0.375 0.389,0.252 0.654,0.541 0.794,0.873 l 0,1.516 -1.588,0 c -0.601,0 -1.054,-0.155 -1.36,-0.459 C -1.145,2.002 -1.299,1.629 -1.299,1.187 -1.299,0.826 -1.184,0.535 -0.954,0.32 -0.725,0.109 -0.406,0 0,0 m 4.233,13.25 c 0,-0.629 -0.191,-1.172 -0.576,-1.615 -0.384,-0.447 -0.87,-0.668 -1.459,-0.668 -0.451,0 -0.964,0.142 -1.532,0.429 -0.573,0.288 -1.028,0.43 -1.362,0.43 -0.234,0 -0.425,-0.107 -0.583,-0.32 -0.154,-0.217 -0.232,-0.471 -0.232,-0.768 l -1.51,0.414 c 0,0.621 0.192,1.162 0.576,1.621 0.383,0.459 0.866,0.688 1.447,0.688 0.362,0 0.853,-0.145 1.474,-0.432 0.62,-0.285 1.098,-0.429 1.433,-0.429 0.221,0 0.413,0.107 0.581,0.318 0.168,0.211 0.251,0.469 0.251,0.781 L 4.233,13.25 z M 2.588,-1.928 c -0.104,0.242 -0.193,0.5 -0.268,0.77 -0.074,0.271 -0.127,0.547 -0.16,0.832 -0.29,-0.522 -0.677,-0.955 -1.151,-1.299 -0.48,-0.342 -1.047,-0.512 -1.705,-0.512 -1.099,0 -1.945,0.287 -2.537,0.866 -0.597,0.578 -0.894,1.363 -0.894,2.359 0,1.051 0.396,1.863 1.188,2.439 0.791,0.578 1.945,0.868 3.462,0.868 l 1.588,0 0,0.849 C 2.111,5.762 1.98,6.16 1.714,6.445 1.45,6.727 1.057,6.869 0.534,6.869 c -0.46,0 -0.813,-0.115 -1.061,-0.34 -0.25,-0.23 -0.374,-0.543 -0.374,-0.937 l -2.722,0 -0.018,0.06 c -0.047,0.903 0.34,1.684 1.158,2.342 0.817,0.654 1.883,0.985 3.199,0.985 1.26,0 2.28,-0.325 3.058,-0.973 C 4.554,7.361 4.94,6.434 4.94,5.227 l 0,-4.424 c 0,-0.5 0.038,-0.973 0.114,-1.416 0.074,-0.44 0.19,-0.883 0.353,-1.315 l -2.819,0 z"
             style="fill:#194151;fill-opacity:1;fill-rule:nonzero;stroke:none"
             id="path3009" /></g><g
           id="g3011"
           transform="translate(39.5107,47.9629)"><path
             d="m 0,0 c 0,-0.977 0.169,-1.76 0.503,-2.35 0.338,-0.589 0.878,-0.884 1.629,-0.884 0.728,0 1.264,0.295 1.603,0.888 0.338,0.594 0.507,1.379 0.507,2.346 l 0,0.209 C 4.242,1.158 4.071,1.936 3.73,2.535 3.387,3.135 2.848,3.436 2.11,3.436 1.381,3.436 0.848,3.133 0.509,2.531 0.169,1.926 0,1.15 0,0.209 L 0,0 z m -2.818,0.209 c 0,1.596 0.433,2.904 1.306,3.924 0.872,1.021 2.08,1.531 3.622,1.531 1.55,0 2.764,-0.51 3.645,-1.527 C 6.632,3.121 7.07,1.812 7.07,0.209 L 7.07,0 c 0,-1.609 -0.437,-2.92 -1.31,-3.934 -0.874,-1.013 -2.085,-1.517 -3.628,-1.517 -1.55,0 -2.763,0.504 -3.639,1.517 C -2.382,-2.92 -2.818,-1.609 -2.818,0 l 0,0.209 z"
             style="fill:#194151;fill-opacity:1;fill-rule:nonzero;stroke:none"
             id="path3013" /></g><g
           id="g3015"
           transform="translate(56.3076,50.1699)"><path
             d="m 0,0 2.568,0 c 0.789,0 1.386,0.221 1.791,0.658 0.409,0.44 0.612,1 0.612,1.68 0,0.693 -0.202,1.266 -0.607,1.715 C 3.963,4.506 3.363,4.732 2.568,4.732 L 0,4.732 0,0 z m 0,-2.225 0,-5.224 -2.827,0 0,14.408 5.395,0 C 4.19,6.959 5.467,6.539 6.396,5.691 7.325,4.848 7.789,3.736 7.789,2.357 7.789,0.977 7.325,-0.131 6.396,-0.969 5.467,-1.807 4.19,-2.225 2.568,-2.225 l -2.568,0 z"
             style="fill:#194151;fill-opacity:1;fill-rule:nonzero;stroke:none"
             id="path3017" /></g><g
           id="g3019"
           transform="translate(69.3965,44.6484)"><path
             d="m 0,0 c 0.491,0 0.93,0.123 1.316,0.375 0.388,0.252 0.653,0.541 0.795,0.873 l 0,1.516 -1.589,0 c -0.6,0 -1.055,-0.155 -1.36,-0.459 -0.308,-0.303 -0.46,-0.676 -0.46,-1.118 0,-0.361 0.114,-0.652 0.344,-0.867 C -0.725,0.109 -0.406,0 0,0 m 2.588,-1.928 c -0.105,0.242 -0.193,0.5 -0.267,0.77 -0.075,0.271 -0.13,0.547 -0.161,0.832 -0.288,-0.522 -0.677,-0.955 -1.151,-1.299 -0.48,-0.342 -1.047,-0.512 -1.706,-0.512 -1.098,0 -1.946,0.287 -2.538,0.866 -0.596,0.578 -0.892,1.363 -0.892,2.359 0,1.051 0.395,1.863 1.186,2.439 0.793,0.578 1.947,0.868 3.463,0.868 l 1.589,0 0,0.849 C 2.111,5.762 1.979,6.16 1.715,6.445 1.45,6.727 1.055,6.869 0.534,6.869 0.073,6.869 -0.279,6.754 -0.527,6.529 -0.778,6.299 -0.9,5.986 -0.9,5.592 l -2.723,0 -0.02,0.06 c -0.045,0.903 0.341,1.684 1.158,2.342 0.816,0.654 1.884,0.985 3.2,0.985 1.261,0 2.28,-0.325 3.059,-0.973 C 4.553,7.361 4.939,6.434 4.939,5.227 l 0,-4.424 c 0,-0.5 0.038,-0.973 0.113,-1.416 0.074,-0.44 0.19,-0.883 0.353,-1.315 l -2.817,0 z"
             style="fill:#194151;fill-opacity:1;fill-rule:nonzero;stroke:none"
             id="path3021" /></g><g
           id="g3023"
           transform="translate(82.8818,44.3008)"><path
             d="m 0,0 c -0.324,-0.574 -0.733,-1.016 -1.23,-1.324 -0.498,-0.311 -1.076,-0.465 -1.734,-0.465 -1.105,0 -1.971,0.381 -2.592,1.148 -0.623,0.766 -0.935,1.953 -0.935,3.563 l 0,6.203 2.818,0 0,-6.225 c 0,-0.935 0.123,-1.578 0.372,-1.923 0.25,-0.348 0.637,-0.52 1.16,-0.52 0.451,0 0.837,0.072 1.162,0.221 0.322,0.15 0.587,0.369 0.794,0.658 l 0,7.789 2.831,0 0,-10.705 -2.346,0 L 0,0 z"
             style="fill:#194151;fill-opacity:1;fill-rule:nonzero;stroke:none"
             id="path3025" /></g><path
           d="m 90.631,42.721 -2.828,0 0,15.436 2.828,0 0,-15.436 z"
           style="fill:#194151;fill-opacity:1;fill-rule:nonzero;stroke:none"
           id="path3027" /><g
           id="g3029"
           transform="translate(95.3398,47.9629)"><path
             d="m 0,0 c 0,-0.977 0.168,-1.76 0.502,-2.35 0.338,-0.589 0.88,-0.884 1.631,-0.884 0.729,0 1.265,0.295 1.602,0.888 0.338,0.594 0.51,1.379 0.51,2.346 l 0,0.209 C 4.245,1.158 4.072,1.936 3.73,2.535 3.385,3.135 2.85,3.436 2.112,3.436 1.382,3.436 0.847,3.133 0.511,2.531 0.17,1.926 0,1.15 0,0.209 L 0,0 z m -2.816,0.209 c 0,1.596 0.433,2.904 1.305,3.924 0.871,1.021 2.077,1.531 3.623,1.531 1.549,0 2.763,-0.51 3.64,-1.527 0.882,-1.016 1.32,-2.325 1.32,-3.928 L 7.072,0 c 0,-1.609 -0.437,-2.92 -1.312,-3.934 -0.874,-1.013 -2.087,-1.517 -3.627,-1.517 -1.554,0 -2.763,0.504 -3.639,1.517 -0.877,1.014 -1.31,2.325 -1.31,3.934 l 0,0.209 z"
             style="fill:#194151;fill-opacity:1;fill-rule:nonzero;stroke:none"
             id="path3031" /></g><g
           id="g3033"
           transform="translate(28.6699,28.2324)"><path
             d="m 0,0 0.051,-0.008 5.561,10.481 2.123,0 -1.888,-12.887 -1.708,0 1.415,9.648 -0.053,0.016 -5.235,-9.664 -1.186,0 -2.468,9.984 -0.053,0 -1.466,-9.984 -1.704,0 1.889,12.887 2.242,0 L 0,0 z"
             style="fill:#194151;fill-opacity:1;fill-rule:nonzero;stroke:none"
             id="path3035" /></g><g
           id="g3037"
           transform="translate(40.3564,27.0918)"><path
             d="m 0,0 c 0.588,0 1.16,0.164 1.716,0.496 0.555,0.33 0.938,0.703 1.151,1.115 l 0.234,1.551 -1.914,0 C 0.522,3.162 -0.05,2.98 -0.529,2.619 -1.008,2.26 -1.282,1.848 -1.345,1.381 -1.411,0.937 -1.336,0.598 -1.114,0.359 -0.893,0.119 -0.52,0 0,0 m 2.64,-1.273 c -0.012,0.328 -0.015,0.597 -0.015,0.8 0,0.202 0.012,0.411 0.035,0.623 C 2.273,-0.307 1.799,-0.687 1.243,-0.996 0.687,-1.307 0.114,-1.461 -0.47,-1.461 c -0.939,0 -1.638,0.26 -2.091,0.774 -0.454,0.519 -0.614,1.218 -0.48,2.103 0.133,0.945 0.594,1.668 1.384,2.17 0.795,0.5 1.819,0.752 3.079,0.752 l 1.852,0 0.139,0.947 C 3.5,5.869 3.399,6.318 3.114,6.633 2.826,6.951 2.375,7.109 1.758,7.109 1.233,7.109 0.771,6.967 0.372,6.684 -0.027,6.4 -0.252,6.061 -0.303,5.666 L -1.933,5.646 -1.94,5.701 C -1.872,6.428 -1.46,7.07 -0.703,7.635 0.054,8.199 0.973,8.48 2.053,8.48 3.075,8.48 3.878,8.201 4.46,7.645 5.044,7.084 5.265,6.293 5.12,5.266 L 4.444,0.654 C 4.388,0.297 4.351,-0.041 4.345,-0.35 4.335,-0.66 4.354,-0.967 4.399,-1.273 l -1.759,0 z"
             style="fill:#194151;fill-opacity:1;fill-rule:nonzero;stroke:none"
             id="path3039" /></g><g
           id="g3041"
           transform="translate(50.6055,37.8477)"><path
             d="m 0,0 -1.71,0 0.263,1.777 1.707,0 L 0,0 z m -1.768,-12.029 -1.707,0 1.404,9.576 1.706,0 -1.403,-9.576 z"
             style="fill:#194151;fill-opacity:1;fill-rule:nonzero;stroke:none"
             id="path3043" /></g><g
           id="g3045"
           transform="translate(57.3105,28.3926)"><path
             d="m 0,0 c 0.052,0.396 -0.045,0.711 -0.295,0.947 -0.248,0.237 -0.762,0.448 -1.542,0.631 -1.073,0.238 -1.879,0.58 -2.413,1.016 -0.534,0.435 -0.749,1.019 -0.646,1.752 0.11,0.816 0.525,1.49 1.246,2.027 C -2.934,6.91 -2.051,7.18 -1.006,7.18 0.012,7.18 0.819,6.883 1.42,6.285 2.021,5.689 2.256,5.004 2.125,4.23 l -0.021,-0.052 -1.636,0 C 0.526,4.604 0.4,4.98 0.096,5.312 -0.212,5.641 -0.638,5.809 -1.187,5.809 -1.766,5.809 -2.228,5.666 -2.578,5.387 -2.927,5.107 -3.128,4.777 -3.179,4.4 -3.232,4.01 -3.146,3.715 -2.92,3.516 -2.694,3.314 -2.187,3.127 -1.397,2.955 -0.279,2.709 0.543,2.357 1.075,1.902 1.604,1.449 1.82,0.855 1.726,0.123 1.603,-0.756 1.17,-1.455 0.434,-1.977 -0.308,-2.5 -1.225,-2.762 -2.322,-2.762 c -1.146,0 -2.028,0.313 -2.657,0.94 -0.626,0.625 -0.867,1.345 -0.722,2.158 l 0.017,0.053 1.637,0 c -0.052,-0.618 0.114,-1.073 0.493,-1.36 0.383,-0.283 0.857,-0.427 1.42,-0.427 0.585,0 1.072,0.13 1.456,0.398 0.39,0.266 0.616,0.6 0.678,1"
             style="fill:#194151;fill-opacity:1;fill-rule:nonzero;stroke:none"
             id="path3047" /></g><g
           id="g3049"
           transform="translate(73.251,31.5176)"><path
             d="m 0,0 -5.329,0 -0.832,-5.699 -1.705,0 1.887,12.886 7.911,0 -0.199,-1.369 -6.201,0 -0.663,-4.447 5.331,0 L 0,0 z"
             style="fill:#194151;fill-opacity:1;fill-rule:nonzero;stroke:none"
             id="path3051" /></g><g
           id="g3053"
           transform="translate(80.9521,39.459)"><path
             d="m 0,0 1.986,0 0.017,-0.055 -2.651,-2.302 -1.221,0 -0.019,0.043 L 0,0 z m -3.19,-12.367 c 0.591,0 1.165,0.164 1.717,0.496 0.556,0.33 0.941,0.703 1.154,1.115 l 0.232,1.551 -1.911,0 c -0.669,0 -1.238,-0.182 -1.719,-0.543 -0.479,-0.359 -0.749,-0.772 -0.812,-1.238 -0.072,-0.444 0.007,-0.784 0.229,-1.022 0.221,-0.24 0.593,-0.359 1.11,-0.359 m 2.644,-1.274 c -0.011,0.328 -0.016,0.598 -0.016,0.801 0,0.201 0.012,0.41 0.033,0.623 -0.384,-0.457 -0.856,-0.838 -1.415,-1.146 -0.56,-0.311 -1.128,-0.465 -1.713,-0.465 -0.94,0 -1.638,0.26 -2.09,0.773 -0.455,0.52 -0.614,1.219 -0.482,2.104 0.133,0.945 0.595,1.668 1.386,2.17 0.791,0.5 1.818,0.752 3.075,0.752 l 1.857,0 0.138,0.947 c 0.085,0.584 -0.013,1.033 -0.301,1.348 -0.284,0.318 -0.736,0.476 -1.356,0.476 -0.524,0 -0.986,-0.142 -1.385,-0.426 -0.399,-0.283 -0.624,-0.623 -0.675,-1.017 l -1.629,-0.02 -0.009,0.055 c 0.069,0.727 0.482,1.369 1.237,1.934 0.756,0.564 1.677,0.845 2.756,0.845 1.024,0 1.825,-0.279 2.41,-0.836 0.582,-0.56 0.803,-1.351 0.658,-2.379 L 1.259,-11.713 C 1.2,-12.07 1.167,-12.408 1.156,-12.717 c -0.006,-0.31 0.011,-0.617 0.057,-0.924 l -1.759,0 z"
             style="fill:#194151;fill-opacity:1;fill-rule:nonzero;stroke:none"
             id="path3055" /></g><g
           id="g3057"
           transform="translate(88.3018,26.9941)"><path
             d="m 0,0 c 0.499,0 0.979,0.18 1.432,0.539 0.454,0.359 0.72,0.799 0.801,1.311 l 1.542,0 0.017,-0.053 C 3.688,0.936 3.236,0.193 2.438,-0.43 1.635,-1.053 0.756,-1.363 -0.2,-1.363 c -1.262,0 -2.196,0.463 -2.804,1.386 -0.61,0.922 -0.816,2.055 -0.619,3.403 l 0.051,0.371 c 0.208,1.4 0.735,2.547 1.578,3.439 0.84,0.895 1.926,1.342 3.247,1.342 1.012,0 1.811,-0.334 2.4,-1 C 4.243,6.91 4.454,6.098 4.288,5.143 L 4.271,5.098 2.71,5.098 C 2.794,5.707 2.688,6.209 2.381,6.609 2.073,7.006 1.631,7.207 1.055,7.207 0.253,7.207 -0.401,6.869 -0.903,6.193 -1.407,5.516 -1.724,4.719 -1.857,3.797 L -1.907,3.426 C -2.059,2.434 -1.992,1.615 -1.71,0.971 -1.426,0.324 -0.858,0 0,0"
             style="fill:#194151;fill-opacity:1;fill-rule:nonzero;stroke:none"
             id="path3059" /></g><g
           id="g3061"
           transform="translate(97.3018,37.8477)"><path
             d="m 0,0 -1.707,0 0.259,1.777 1.707,0 L 0,0 z m -1.769,-12.029 -1.706,0 1.403,9.576 1.708,0 -1.405,-9.576 z"
             style="fill:#194151;fill-opacity:1;fill-rule:nonzero;stroke:none"
             id="path3063" /></g><g
           id="g3065"
           transform="translate(100.0029,25.8184)"><path
             d="m 0,0 -1.706,0 2.027,13.807 1.706,0 L 0,0 z"
             style="fill:#194151;fill-opacity:1;fill-rule:nonzero;stroke:none"
             id="path3067" /></g></g></g></g></svg>